<?xml version="1.0" encoding="UTF-8" standalone="no"?>
<!-- Created with Inkscape (http://www.inkscape.org/) -->

<svg
   xmlns:dc="http://purl.org/dc/elements/1.1/"
   xmlns:cc="http://creativecommons.org/ns#"
   xmlns:rdf="http://www.w3.org/1999/02/22-rdf-syntax-ns#"
   xmlns:svg="http://www.w3.org/2000/svg"
   xmlns="http://www.w3.org/2000/svg"
   version="1.1"
   width="992.74542"
   height="660.13989"
   id="svg2"
   xml:space="preserve"><metadata
     id="metadata8"><rdf:RDF><cc:Work
         rdf:about=""><dc:format>image/svg+xml</dc:format><dc:type
           rdf:resource="http://purl.org/dc/dcmitype/StillImage" /><dc:title></dc:title></cc:Work></rdf:RDF></metadata><defs
     id="defs6"><clipPath
       id="clipPath22"><path
         d="m 0,595.28 841.89,0 L 841.89,0 0,0 0,595.28 z"
         id="path24" /></clipPath><clipPath
       id="clipPath178"><path
         d="m 0,595.28 841.89,0 L 841.89,0 0,0 0,595.28 z"
         id="path180" /></clipPath><clipPath
       id="clipPath218"><path
         d="m 0,595.28 841.89,0 L 841.89,0 0,0 0,595.28 z"
         id="path220" /></clipPath><clipPath
       id="clipPath262"><path
         d="m 0,595.28 841.89,0 L 841.89,0 0,0 0,595.28 z"
         id="path264" /></clipPath></defs><g
     transform="matrix(1.25,0,0,-1.25,-35.287537,699.9275)"
     id="g10"><path
       d="m 648.696,394.28 -105.498,0 0,165.662 105.498,0 0,-165.662 z"
       id="path12"
       style="fill:#2f2f2f;fill-opacity:1;fill-rule:nonzero;stroke:none" /><text
       transform="matrix(1,0,0,-1,495.7773,275.7158)"
       id="text14"><tspan
         x="0 48.812595 90.583763 120.77835 133.90643 146.91518 175.49858 203.1869 262.86002"
         y="0"
         id="tspan16"
         style="font-size:59.67309952px;font-variant:normal;font-weight:normal;font-stretch:normal;writing-mode:lr-tb;fill:#2b2b2a;fill-opacity:1;fill-rule:nonzero;stroke:none;font-family:Caramella;-inkscape-font-specification:Caramella">MOBI’FL W</tspan></text>
<g
       id="g18"><g
         clip-path="url(#clipPath22)"
         id="g20"><g
           transform="translate(83.5044,532.2178)"
           id="g26"><path
             d="m 0,0 c -51.958,-24.29 -51.958,-70.906 -51.958,-70.906 l 0.067,0 c -0.043,-0.902 -0.067,-1.811 -0.067,-2.722 0,-28.687 23.261,-51.95 51.958,-51.95 28.687,0 51.949,23.263 51.949,51.95 0,0.911 -0.025,1.82 -0.067,2.722 l 0.067,0 c -3.23,29.198 -19.056,47.439 -33.616,54.59 l -9.192,-9.786"
             id="path28"
             style="fill:#ffffff;fill-opacity:1;fill-rule:nonzero;stroke:#2b2b2a;stroke-width:1;stroke-linecap:butt;stroke-linejoin:miter;stroke-miterlimit:10;stroke-opacity:1;stroke-dasharray:none" /></g><g
           transform="translate(83.5,531.4282)"
           id="g30"><path
             d="M 0,0 0,28.514"
             id="path32"
             style="fill:#ffffff;fill-opacity:1;fill-rule:nonzero;stroke:#2b2b2a;stroke-width:1;stroke-linecap:butt;stroke-linejoin:miter;stroke-miterlimit:10;stroke-opacity:1;stroke-dasharray:none" /></g><g
           transform="translate(96.8672,500.1914)"
           id="g34"><path
             d="m 0,0 c 0,-5.347 -4.334,-9.682 -9.681,-9.682 -5.347,0 -9.682,4.335 -9.682,9.682 0,5.347 4.335,9.682 9.682,9.682 C -4.334,9.682 0,5.347 0,0"
             id="path36"
             style="fill:#ffffff;fill-opacity:1;fill-rule:nonzero;stroke:none" /></g><g
           transform="translate(96.8672,500.1914)"
           id="g38"><path
             d="m 0,0 c 0,-5.347 -4.334,-9.682 -9.681,-9.682 -5.347,0 -9.682,4.335 -9.682,9.682 0,5.347 4.335,9.682 9.682,9.682 C -4.334,9.682 0,5.347 0,0 z"
             id="path40"
             style="fill:none;stroke:#2b2b2a;stroke-width:1;stroke-linecap:butt;stroke-linejoin:miter;stroke-miterlimit:10;stroke-opacity:1;stroke-dasharray:none" /></g><g
           transform="translate(745.3848,468.1704)"
           id="g42"><path
             d="M 0,0 0,58.991 C 14.398,51.919 47.978,40.069 51.383,-4.452 l -0.067,0 c 0.041,-0.891 0.067,-1.791 0.067,-2.692 0,-28.372 -23.008,-51.379 -51.379,-51.379 -28.381,0 -51.388,23.007 -51.388,51.379 0,0.901 0.026,1.801 0.067,2.692 l -0.067,0 c 0,0 -0.006,44.892 51.384,68.915 l 0,24.302"
             id="path44"
             style="fill:#ffffff;fill-opacity:1;fill-rule:nonzero;stroke:#2b2b2a;stroke-width:1;stroke-linecap:butt;stroke-linejoin:miter;stroke-miterlimit:10;stroke-opacity:1;stroke-dasharray:none" /></g><g
           transform="translate(754.959,458.4976)"
           id="g46"><path
             d="m 0,0 c 0,-5.288 -4.287,-9.575 -9.574,-9.575 -5.288,0 -9.575,4.287 -9.575,9.575 0,5.288 4.287,9.575 9.575,9.575 C -4.287,9.575 0,5.288 0,0"
             id="path48"
             style="fill:#ffffff;fill-opacity:1;fill-rule:nonzero;stroke:none" /></g><g
           transform="translate(754.959,458.4976)"
           id="g50"><path
             d="m 0,0 c 0,-5.288 -4.287,-9.575 -9.574,-9.575 -5.288,0 -9.575,4.287 -9.575,9.575 0,5.288 4.287,9.575 9.575,9.575 C -4.287,9.575 0,5.288 0,0 z"
             id="path52"
             style="fill:none;stroke:#2b2b2a;stroke-width:1;stroke-linecap:butt;stroke-linejoin:miter;stroke-miterlimit:10;stroke-opacity:1;stroke-dasharray:none" /></g><g
           transform="translate(228.896,308.4702)"
           id="g54"><path
             d="M 0,0 0,53 C 12.937,46.646 43.104,36 46.165,-4 l -0.061,0 c 0.039,-0.801 0.061,-1.609 0.061,-2.418 0,-25.492 -20.67,-46.162 -46.161,-46.162 -25.499,0 -46.169,20.67 -46.169,46.162 0,0.809 0.022,1.617 0.06,2.418 l -0.06,0 c 0,0 -0.004,40.333 46.165,61.917 L 0,79.75"
             id="path56"
             style="fill:none;stroke:#4d6b52;stroke-width:2;stroke-linecap:butt;stroke-linejoin:miter;stroke-miterlimit:10;stroke-opacity:1;stroke-dasharray:none" /></g><g
           transform="translate(237.4985,299.7798)"
           id="g58"><path
             d="m 0,0 c 0,-4.75 -3.852,-8.602 -8.603,-8.602 -4.751,0 -8.602,3.852 -8.602,8.602 0,4.751 3.851,8.603 8.602,8.603 C -3.852,8.603 0,4.751 0,0"
             id="path60"
             style="fill:#4d6b52;fill-opacity:1;fill-rule:nonzero;stroke:none" /></g><g
           transform="translate(285.7944,473.9673)"
           id="g62"><path
             d="m 0,0 c 0.048,-1.035 0.078,-2.08 0.078,-3.125 0,-32.949 -26.718,-59.667 -59.666,-59.667 -32.959,0 -59.676,26.718 -59.676,59.667 0,1.045 0.029,2.09 0.077,3.125 l -0.077,0 c 0,0 1.326,68.54 59.676,81.439 0,0 55.35,-9.677 59.666,-81.439 L 0,0 z"
             id="path64"
             style="fill:#ffffff;fill-opacity:1;fill-rule:nonzero;stroke:none" /></g><g
           transform="translate(285.7944,473.9673)"
           id="g66"><path
             d="m 0,0 c 0.048,-1.035 0.078,-2.08 0.078,-3.125 0,-32.949 -26.718,-59.667 -59.666,-59.667 -32.959,0 -59.676,26.718 -59.676,59.667 0,1.045 0.029,2.09 0.077,3.125 l -0.077,0 c 0,0 1.326,68.54 59.676,81.439 0,0 55.35,-9.677 59.666,-81.439 L 0,0 z"
             id="path68"
             style="fill:none;stroke:#2b2b2a;stroke-width:1;stroke-linecap:butt;stroke-linejoin:miter;stroke-miterlimit:10;stroke-opacity:1;stroke-dasharray:none" /></g><g
           transform="translate(240.7163,534.1177)"
           id="g70"><path
             d="m 0,0 c 0,-8.017 -6.499,-14.515 -14.515,-14.515 -8.016,0 -14.515,6.498 -14.515,14.515 0,8.016 6.499,14.515 14.515,14.515 C -6.499,14.515 0,8.016 0,0"
             id="path72"
             style="fill:#ffffff;fill-opacity:1;fill-rule:nonzero;stroke:none" /></g><g
           transform="translate(240.7163,534.1177)"
           id="g74"><path
             d="m 0,0 c 0,-8.017 -6.499,-14.515 -14.515,-14.515 -8.016,0 -14.515,6.498 -14.515,14.515 0,8.016 6.499,14.515 14.515,14.515 C -6.499,14.515 0,8.016 0,0 z"
             id="path76"
             style="fill:none;stroke:#2b2b2a;stroke-width:1;stroke-linecap:butt;stroke-linejoin:miter;stroke-miterlimit:10;stroke-opacity:1;stroke-dasharray:none" /></g><g
           transform="translate(213.7095,526.7271)"
           id="g78"><path
             d="M 0,0 -26.272,-57.175"
             id="path80"
             style="fill:none;stroke:#2b2b2a;stroke-width:1;stroke-linecap:butt;stroke-linejoin:miter;stroke-miterlimit:10;stroke-opacity:1;stroke-dasharray:none" /></g><g
           transform="translate(236.8037,524.2095)"
           id="g82"><path
             d="M 0,0 26.595,-80.301"
             id="path84"
             style="fill:none;stroke:#2b2b2a;stroke-width:1;stroke-linecap:butt;stroke-linejoin:miter;stroke-miterlimit:10;stroke-opacity:1;stroke-dasharray:none" /></g><g
           transform="translate(191.6357,466.5024)"
           id="g86"><path
             d="m 0,0 c 0,-2.761 -2.239,-5 -5,-5 -2.761,0 -5,2.239 -5,5 0,2.761 2.239,5 5,5 2.761,0 5,-2.239 5,-5 z"
             id="path88"
             style="fill:none;stroke:#2b2b2a;stroke-width:1;stroke-linecap:butt;stroke-linejoin:miter;stroke-miterlimit:10;stroke-opacity:1;stroke-dasharray:none" /></g><g
           transform="translate(272.6357,440.2524)"
           id="g90"><path
             d="m 0,0 c 0,-2.624 -2.126,-4.75 -4.75,-4.75 -2.624,0 -4.75,2.126 -4.75,4.75 0,2.624 2.126,4.75 4.75,4.75 C -2.126,4.75 0,2.624 0,0 z"
             id="path92"
             style="fill:none;stroke:#2b2b2a;stroke-width:1;stroke-linecap:butt;stroke-linejoin:miter;stroke-miterlimit:10;stroke-opacity:1;stroke-dasharray:none" /></g><g
           transform="translate(476.3076,473.8447)"
           id="g94"><path
             d="m 0,0 c 0.049,-1.048 0.079,-2.107 0.079,-3.166 0,-33.382 -27.068,-60.45 -60.45,-60.45 -33.391,0 -60.46,27.068 -60.46,60.45 0,1.059 0.03,2.118 0.079,3.166 l -0.079,0 c 0,0 1.343,69.44 60.46,82.509 0,0 56.077,-9.804 60.45,-82.509 L 0,0 z"
             id="path96"
             style="fill:#ffffff;fill-opacity:1;fill-rule:nonzero;stroke:none" /></g><g
           transform="translate(476.3076,473.8447)"
           id="g98"><path
             d="m 0,0 c 0.049,-1.048 0.079,-2.107 0.079,-3.166 0,-33.382 -27.068,-60.45 -60.45,-60.45 -33.391,0 -60.46,27.068 -60.46,60.45 0,1.059 0.03,2.118 0.079,3.166 l -0.079,0 c 0,0 1.343,69.44 60.46,82.509 0,0 56.077,-9.804 60.45,-82.509 L 0,0 z"
             id="path100"
             style="fill:none;stroke:#2b2b2a;stroke-width:1;stroke-linecap:butt;stroke-linejoin:miter;stroke-miterlimit:10;stroke-opacity:1;stroke-dasharray:none" /></g><g
           transform="translate(430.6377,534.7852)"
           id="g102"><path
             d="m 0,0 c 0,-8.122 -6.584,-14.706 -14.706,-14.706 -8.122,0 -14.706,6.584 -14.706,14.706 0,8.122 6.584,14.706 14.706,14.706 C -6.584,14.706 0,8.122 0,0"
             id="path104"
             style="fill:#ffffff;fill-opacity:1;fill-rule:nonzero;stroke:none" /></g><g
           transform="translate(430.6377,534.7852)"
           id="g106"><path
             d="m 0,0 c 0,-8.122 -6.584,-14.706 -14.706,-14.706 -8.122,0 -14.706,6.584 -14.706,14.706 0,8.122 6.584,14.706 14.706,14.706 C -6.584,14.706 0,8.122 0,0 z"
             id="path108"
             style="fill:none;stroke:#2b2b2a;stroke-width:1;stroke-linecap:butt;stroke-linejoin:miter;stroke-miterlimit:10;stroke-opacity:1;stroke-dasharray:none" /></g><g
           transform="translate(403.2759,527.2974)"
           id="g110"><path
             d="M 0,0 -26.618,-57.926"
             id="path112"
             style="fill:none;stroke:#2b2b2a;stroke-width:1;stroke-linecap:butt;stroke-linejoin:miter;stroke-miterlimit:10;stroke-opacity:1;stroke-dasharray:none" /></g><g
           transform="translate(426.6738,524.7466)"
           id="g114"><path
             d="M 0,0 26.943,-81.355"
             id="path116"
             style="fill:none;stroke:#2b2b2a;stroke-width:1;stroke-linecap:butt;stroke-linejoin:miter;stroke-miterlimit:10;stroke-opacity:1;stroke-dasharray:none" /></g><g
           transform="translate(380.0894,464.4692)"
           id="g118"><path
             d="m 0,0 c 0,-2.708 -2.195,-4.902 -4.902,-4.902 -2.706,0 -4.902,2.194 -4.902,4.902 0,2.708 2.196,4.902 4.902,4.902 C -2.195,4.902 0,2.708 0,0 z"
             id="path120"
             style="fill:none;stroke:#2b2b2a;stroke-width:1;stroke-linecap:butt;stroke-linejoin:miter;stroke-miterlimit:10;stroke-opacity:1;stroke-dasharray:none" /></g><g
           transform="translate(459.5,438.7344)"
           id="g122"><path
             d="m 0,0 c 0,-2.572 -2.084,-4.657 -4.657,-4.657 -2.572,0 -4.656,2.085 -4.656,4.657 0,2.571 2.084,4.657 4.656,4.657 C -2.084,4.657 0,2.571 0,0 z"
             id="path124"
             style="fill:none;stroke:#2b2b2a;stroke-width:1;stroke-linecap:butt;stroke-linejoin:miter;stroke-miterlimit:10;stroke-opacity:1;stroke-dasharray:none" /></g><g
           transform="translate(490.8633,483.2905)"
           id="g126"><path
             d="m 0,0 c 0,-41.383 -33.547,-74.932 -74.932,-74.932 -41.384,0 -74.932,33.549 -74.932,74.932 0,41.384 33.548,74.933 74.932,74.933 C -33.547,74.933 0,41.384 0,0 z"
             id="path128"
             style="fill:none;stroke:#2b2b2a;stroke-width:1;stroke-linecap:butt;stroke-linejoin:miter;stroke-miterlimit:10;stroke-opacity:1;stroke-dasharray:none" /></g><g
           transform="translate(442.3311,110.9414)"
           id="g130"><path
             d="m 0,0 c 0,-27.011 -21.893,-48.905 -48.904,-48.905 -27.003,0 -48.905,21.894 -48.905,48.905 0,22.574 15.298,41.573 36.08,47.199 -4.585,3.725 -7.519,9.413 -7.519,15.79 0,11.237 9.108,20.345 20.344,20.345 11.236,0 20.343,-9.108 20.343,-20.345 0,-6.377 -2.933,-12.065 -7.518,-15.79 C -15.289,41.573 0,22.574 0,0"
             id="path132"
             style="fill:#e84647;fill-opacity:1;fill-rule:nonzero;stroke:none" /></g><g
           transform="translate(411.5127,129.1562)"
           id="g134"><path
             d="m 0,0 c 0,-9.989 -8.098,-18.087 -18.086,-18.087 -9.989,0 -18.086,8.098 -18.086,18.087 0,9.988 8.097,18.086 18.086,18.086 C -8.098,18.086 0,9.988 0,0"
             id="path136"
             style="fill:#ffffff;fill-opacity:1;fill-rule:nonzero;stroke:none" /></g><g
           transform="translate(78.2148,365.5308)"
           id="g138"><path
             d="m 0,0 c -46.169,-21.584 -46.169,-63.006 -46.169,-63.006 l 0.061,0 c -0.038,-0.801 -0.061,-1.609 -0.061,-2.418 0,-25.491 20.67,-46.162 46.169,-46.162 25.491,0 46.161,20.671 46.161,46.162 0,0.809 -0.022,1.617 -0.059,2.418 l 0.059,0 c -2.87,25.945 -16.933,42.154 -29.87,48.508 l -8.168,-8.695"
             id="path140"
             style="fill:none;stroke:#e84647;stroke-width:2;stroke-linecap:butt;stroke-linejoin:miter;stroke-miterlimit:10;stroke-opacity:1;stroke-dasharray:none" /></g><g
           transform="translate(78.2109,364.8296)"
           id="g142"><path
             d="M 0,0 0,25.336"
             id="path144"
             style="fill:none;stroke:#e84647;stroke-width:1;stroke-linecap:butt;stroke-linejoin:miter;stroke-miterlimit:10;stroke-opacity:1;stroke-dasharray:none" /></g><g
           transform="translate(90.0889,337.0737)"
           id="g146"><path
             d="m 0,0 c 0,-4.752 -3.852,-8.604 -8.603,-8.604 -4.751,0 -8.602,3.852 -8.602,8.604 0,4.75 3.851,8.602 8.602,8.602 C -3.852,8.602 0,4.75 0,0"
             id="path148"
             style="fill:#e84647;fill-opacity:1;fill-rule:nonzero;stroke:none" /></g><g
           transform="translate(603.1729,493.4028)"
           id="g150"><path
             d="m 0,0 7.262,7.73 c 11.5,-5.648 24.003,-20.058 26.553,-43.124 l -0.051,0 c 0.033,-0.712 0.051,-1.431 0.051,-2.15 0,-22.662 -18.376,-41.039 -41.037,-41.039 -22.67,0 -41.046,18.377 -41.046,41.039 0,0.719 0.021,1.438 0.054,2.15 l -0.054,0 c 0,0 0,36.825 41.046,56.014 l 0,26.066"
             id="path152"
             style="fill:none;stroke:#ffffff;stroke-width:3;stroke-linecap:butt;stroke-linejoin:miter;stroke-miterlimit:10;stroke-opacity:1;stroke-dasharray:none" /></g><g
           transform="translate(606.5068,488.7231)"
           id="g154"><path
             d="m 0,0 c 0,-4.225 -3.425,-7.648 -7.647,-7.648 -4.225,0 -7.649,3.423 -7.649,7.648 0,4.223 3.424,7.647 7.649,7.647 C -3.425,7.647 0,4.223 0,0"
             id="path156"
             style="fill:#ffffff;fill-opacity:1;fill-rule:nonzero;stroke:none" /></g><g
           transform="translate(78.2153,182.5137)"
           id="g158"><path
             d="m 0,0 c -48.899,-22.86 -48.899,-66.731 -48.899,-66.731 l 0.064,0 c -0.04,-0.848 -0.064,-1.706 -0.064,-2.561 0,-26.997 21.892,-48.892 48.899,-48.892 26.998,0 48.89,21.895 48.89,48.892 0,0.855 -0.024,1.713 -0.063,2.561 l 0.063,0 c -3.04,27.479 -17.935,44.646 -31.636,51.376 l -8.651,-9.21"
             id="path160"
             style="fill:none;stroke:#e84647;stroke-width:2;stroke-linecap:butt;stroke-linejoin:miter;stroke-miterlimit:10;stroke-opacity:1;stroke-dasharray:none" /></g><g
           transform="translate(78.2109,181.7705)"
           id="g162"><path
             d="M 0,0 0,26.834"
             id="path164"
             style="fill:none;stroke:#e84647;stroke-width:1;stroke-linecap:butt;stroke-linejoin:miter;stroke-miterlimit:10;stroke-opacity:1;stroke-dasharray:none" /></g><g
           transform="translate(90.791,152.374)"
           id="g166"><path
             d="m 0,0 c 0,-5.032 -4.079,-9.112 -9.111,-9.112 -5.032,0 -9.111,4.08 -9.111,9.112 0,5.031 4.079,9.11 9.111,9.11 C -4.079,9.11 0,5.031 0,0"
             id="path168"
             style="fill:#e84647;fill-opacity:1;fill-rule:nonzero;stroke:none" /></g></g></g><text
       transform="matrix(1,0,0,-1,495.7783,100.082)"
       id="text170"><tspan
         x="0 47.491123 91.783981 129.4993 144.64577 156.95604 190.3869 220.67984 268.95544"
         y="0"
         id="tspan172"
         style="font-size:60.3445015px;font-variant:normal;font-weight:normal;font-stretch:normal;writing-mode:lr-tb;fill:#2b2b2a;fill-opacity:1;fill-rule:nonzero;stroke:none;font-family:Blur;-inkscape-font-specification:BlurMedium">MOBI’FL W</tspan></text>
<g
       id="g174"><g
         clip-path="url(#clipPath178)"
         id="g176"><g
           transform="translate(741.7822,147.3154)"
           id="g182"><path
             d="m 0,0 c -20.725,-9.686 -20.725,-28.278 -20.725,-28.278 l 0.028,0 c -0.016,-0.356 -0.028,-0.721 -0.028,-1.084 0,-11.442 9.28,-20.719 20.725,-20.719 11.441,0 20.719,9.277 20.719,20.719 0,0.363 -0.012,0.728 -0.026,1.084 l 0.026,0 C 19.432,-16.632 13.12,-9.358 7.311,-6.505 l -3.665,-3.902"
             id="path184"
             style="fill:none;stroke:#e84647;stroke-width:2;stroke-linecap:butt;stroke-linejoin:miter;stroke-miterlimit:10;stroke-opacity:1;stroke-dasharray:none" /></g><g
           transform="translate(741.7793,147.0039)"
           id="g186"><path
             d="M 0,0 0,11.373"
             id="path188"
             style="fill:none;stroke:#e84647;stroke-width:1;stroke-linecap:butt;stroke-linejoin:miter;stroke-miterlimit:10;stroke-opacity:1;stroke-dasharray:none" /></g><g
           transform="translate(747.1113,134.5469)"
           id="g190"><path
             d="m 0,0 c 0,-2.136 -1.729,-3.863 -3.86,-3.863 -2.134,0 -3.862,1.727 -3.862,3.863 0,2.127 1.728,3.859 3.862,3.859 C -1.729,3.859 0,2.127 0,0"
             id="path192"
             style="fill:#e84647;fill-opacity:1;fill-rule:nonzero;stroke:none" /></g><g
           transform="translate(729.4922,328.8369)"
           id="g194"><path
             d="m 0,0 c -24.695,-11.54 -24.695,-33.695 -24.695,-33.695 l 0.032,0 c -0.02,-0.422 -0.032,-0.859 -0.032,-1.291 0,-13.633 11.057,-24.687 24.695,-24.687 13.633,0 24.687,11.054 24.687,24.687 0,0.432 -0.014,0.869 -0.03,1.291 l 0.03,0 C 23.152,-19.816 15.632,-11.15 8.711,-7.749 l -4.367,-4.649"
             id="path196"
             style="fill:none;stroke:#e84647;stroke-width:2;stroke-linecap:butt;stroke-linejoin:miter;stroke-miterlimit:10;stroke-opacity:1;stroke-dasharray:none" /></g><g
           transform="translate(729.4873,328.4668)"
           id="g198"><path
             d="M 0,0 0,13.551"
             id="path200"
             style="fill:none;stroke:#e84647;stroke-width:1;stroke-linecap:butt;stroke-linejoin:miter;stroke-miterlimit:10;stroke-opacity:1;stroke-dasharray:none" /></g><g
           transform="translate(735.8428,313.624)"
           id="g202"><path
             d="m 0,0 c 0,-2.546 -2.062,-4.604 -4.602,-4.604 -2.542,0 -4.599,2.058 -4.599,4.604 0,2.533 2.057,4.599 4.599,4.599 C -2.062,4.599 0,2.533 0,0"
             id="path204"
             style="fill:#e84647;fill-opacity:1;fill-rule:nonzero;stroke:none" /></g></g></g><text
       transform="matrix(1,0,0,-1,33.3076,232.1748)"
       id="text206"><tspan
         x="0 13.872 26.264999 36.380001 41.105999 45.492001 54.060001 61.966702 74.069"
         y="0"
         id="tspan208"
         style="font-size:17px;font-variant:normal;font-weight:normal;font-stretch:normal;writing-mode:lr-tb;fill:#2b2b2a;fill-opacity:1;fill-rule:nonzero;stroke:none;font-family:Aller;-inkscape-font-specification:Aller">MOBI’FLOW</tspan><tspan
         x="315.21399 329.086 341.479 351.59399 356.32001 360.70599 369.27399 377.18069 389.28299"
         y="196.673"
         id="tspan210"
         style="font-size:17px;font-variant:normal;font-weight:normal;font-stretch:normal;writing-mode:lr-tb;fill:#2b2b2a;fill-opacity:1;fill-rule:nonzero;stroke:none;font-family:Aller;-inkscape-font-specification:Aller">MOBI’FLOW</tspan><tspan
         x="150.688 164.56 176.953 187.06799 191.79401 196.17999 204.748 212.65469 224.757"
         y="0"
         id="tspan212"
         style="font-size:17px;font-variant:normal;font-weight:normal;font-stretch:normal;writing-mode:lr-tb;fill:#2b2b2a;fill-opacity:1;fill-rule:nonzero;stroke:none;font-family:Aller;-inkscape-font-specification:Aller">MOBI’FLOW</tspan></text>
<g
       id="g214"><g
         clip-path="url(#clipPath218)"
         id="g216"><g
           transform="translate(393.4277,376.2534)"
           id="g222"><path
             d="m 0,0 c -32.642,0 -59.198,-26.557 -59.198,-59.199 0,-32.641 26.556,-59.197 59.198,-59.197 32.641,0 59.196,26.556 59.196,59.197 C 59.196,-26.557 32.641,0 0,0 m 0,-119.396 c -33.193,0 -60.198,27.004 -60.198,60.197 C -60.198,-26.005 -33.193,1 0,1 33.192,1 60.196,-26.005 60.196,-59.199 60.196,-92.392 33.192,-119.396 0,-119.396"
             id="path224"
             style="fill:#3f809b;fill-opacity:1;fill-rule:nonzero;stroke:none" /></g><g
           transform="translate(441.5283,310.2383)"
           id="g226"><path
             d="m 0,0 c 0.039,-0.836 0.062,-1.679 0.062,-2.523 0,-26.596 -21.565,-48.161 -48.159,-48.161 -26.602,0 -48.168,21.565 -48.168,48.161 0,0.844 0.024,1.687 0.063,2.523 l -0.063,0 c 0,0 1.071,55.323 48.168,65.734 0,0 44.676,-7.811 48.159,-65.734 L 0,0 z"
             id="path228"
             style="fill:#3f809b;fill-opacity:1;fill-rule:nonzero;stroke:none" /></g><g
           transform="translate(405.6436,354.9072)"
           id="g230"><path
             d="m 0,0 c 0,-6.958 -5.64,-12.598 -12.597,-12.598 -6.958,0 -12.597,5.64 -12.597,12.598 0,6.957 5.639,12.598 12.597,12.598 C -5.64,12.598 0,6.957 0,0"
             id="path232"
             style="fill:#ffffff;fill-opacity:1;fill-rule:nonzero;stroke:none" /></g><g
           transform="translate(365.7236,311.3052)"
           id="g234"><path
             d="M 0,0 -1.817,0.835 15.573,38.679 17.39,37.844 0,0 z"
             id="path236"
             style="fill:#ffffff;fill-opacity:1;fill-rule:nonzero;stroke:none" /></g><g
           transform="translate(420.6836,288.5381)"
           id="g238"><path
             d="m 0,0 -19.385,58.53 1.898,0.629 L 1.898,0.629 0,0 z"
             id="path240"
             style="fill:#ffffff;fill-opacity:1;fill-rule:nonzero;stroke:none" /></g><g
           transform="translate(369.8691,305.8579)"
           id="g242"><path
             d="m 0,0 c 0,-3.934 -3.189,-7.121 -7.121,-7.121 -3.931,0 -7.12,3.187 -7.12,7.121 0,3.933 3.189,7.12 7.12,7.12 C -3.189,7.12 0,3.933 0,0"
             id="path244"
             style="fill:#ffffff;fill-opacity:1;fill-rule:nonzero;stroke:none" /></g><g
           transform="translate(428.5996,284.125)"
           id="g246"><path
             d="m 0,0 c 0,-3.34 -2.708,-6.05 -6.048,-6.05 -3.343,0 -6.051,2.71 -6.051,6.05 0,3.341 2.708,6.049 6.051,6.049 C -2.708,6.049 0,3.341 0,0"
             id="path248"
             style="fill:#ffffff;fill-opacity:1;fill-rule:nonzero;stroke:none" /></g></g></g><text
       transform="matrix(1,0,0,-1,344.4639,232.1919)"
       id="text250"><tspan
         x="0 13.889 26.231001 36.515999 41.395 46.563 55.181999 63.053001 75.104301"
         y="0"
         id="tspan252"
         style="font-size:17px;font-variant:normal;font-weight:bold;font-stretch:normal;writing-mode:lr-tb;fill:#23252f;fill-opacity:1;fill-rule:nonzero;stroke:none;font-family:Aller;-inkscape-font-specification:Aller-Bold">MOBI’FLOW</tspan></text>
<text
       transform="matrix(1,0,0,-1,26.4927,35.0254)"
       id="text254"><tspan
         x="0 15.462379 29.202509 40.652618 46.084324 51.837765 61.433147 70.195793 83.614182"
         y="0"
         id="tspan256"
         style="font-size:18.92580032px;font-variant:normal;font-weight:bold;font-stretch:normal;writing-mode:lr-tb;fill:#e84647;fill-opacity:1;fill-rule:nonzero;stroke:none;font-family:Aller;-inkscape-font-specification:Aller-Bold">MOBI’FLOW</tspan></text>
<g
       id="g258"><g
         clip-path="url(#clipPath262)"
         id="g260"><g
           transform="translate(276.2856,118.7412)"
           id="g266"><path
             d="m 0,0 c 0.039,-0.823 0.062,-1.654 0.062,-2.486 0,-26.201 -21.247,-47.448 -47.448,-47.448 -26.209,0 -47.455,21.247 -47.455,47.448 0,0.832 0.023,1.663 0.062,2.486 l -0.062,0 c 0,0 1.054,54.504 47.455,64.762 0,0 44.016,-7.696 47.448,-64.762 L 0,0 z"
             id="path268"
             style="fill:#6f75b5;fill-opacity:1;fill-rule:nonzero;stroke:none" /></g><g
           transform="translate(282.2417,117.8096)"
           id="g270"><path
             d="m 0,0 c 0.043,-0.928 0.069,-1.863 0.069,-2.799 0,-29.493 -23.916,-53.41 -53.411,-53.41 -29.502,0 -53.419,23.917 -53.419,53.41 0,0.936 0.027,1.871 0.07,2.799 l -0.07,0 c 0,0 1.187,61.354 53.419,72.9 0,0 49.548,-8.662 53.411,-72.9 L 0,0 z"
             id="path272"
             style="fill:none;stroke:#6f75b5;stroke-width:1;stroke-linecap:butt;stroke-linejoin:miter;stroke-miterlimit:10;stroke-opacity:1;stroke-dasharray:none" /></g><g
           transform="translate(252.5293,148.8008)"
           id="g274"><path
             d="m 0,0 c 0,-13.053 -10.582,-23.634 -23.634,-23.634 -13.053,0 -23.633,10.581 -23.633,23.634 0,13.052 10.58,23.634 23.633,23.634 C -10.582,23.634 0,13.052 0,0"
             id="path276"
             style="fill:#ffffff;fill-opacity:1;fill-rule:nonzero;stroke:none" /></g><g
           transform="translate(228.8965,124.8984)"
           id="g278"><path
             d="M 0,0 0,-32.31"
             id="path280"
             style="fill:none;stroke:#ffffff;stroke-width:2;stroke-linecap:butt;stroke-linejoin:miter;stroke-miterlimit:10;stroke-opacity:1;stroke-dasharray:none" /></g><g
           transform="translate(233.4175,90.791)"
           id="g282"><path
             d="m 0,0 c 2.498,-2.497 2.498,-6.546 0,-9.042 -2.497,-2.499 -6.545,-2.499 -9.042,0 -2.498,2.496 -2.498,6.545 0,9.042 2.497,2.497 6.545,2.497 9.042,0"
             id="path284"
             style="fill:#ffffff;fill-opacity:1;fill-rule:nonzero;stroke:none" /></g></g></g><text
       transform="matrix(1,0,0,-1,167.8809,32.1416)"
       id="text286"><tspan
         x="0 17.952 33.990002 47.080002 53.195999 58.872002 64.085999 75.174004 85.401802 101.0658"
         y="0"
         id="tspan288"
         style="font-size:22px;font-variant:normal;font-weight:normal;font-stretch:normal;writing-mode:lr-tb;fill:#2b2b2a;fill-opacity:1;fill-rule:nonzero;stroke:none;font-family:Aller;-inkscape-font-specification:Aller">MOBI’ FLOW</tspan></text>
</g></svg>