<?xml version="1.0" encoding="utf-8"?>
<!-- Generator: Adobe Illustrator 19.0.0, SVG Export Plug-In . SVG Version: 6.00 Build 0)  -->
<svg version="1.1" id="Calque_1" xmlns="http://www.w3.org/2000/svg" xmlns:xlink="http://www.w3.org/1999/xlink" x="0px" y="0px"
	 viewBox="0 0 566.9 566.9" style="enable-background:new 0 0 566.9 566.9;" xml:space="preserve">
<style type="text/css">
	.st0{fill:#3FB498;}
	.st1{fill:#47B591;}
</style>
<path id="XMLID_635_" class="st0" d="M461.8,231.1c0,0,6.3-8.1,3.1-18.8c-4.4-15.1-21.9-15.1-21.9-15.1h-35.7v77h41.8
	c0,0,22.2-1.8,22.2-22.2C471.2,235.4,461.8,231.1,461.8,231.1z M425.7,211.6h16.5c4.7,0,8.7,3.8,8.7,8.7c0,4.7-3.9,8.5-8.7,8.5
	h-16.5V211.6z M448.2,260h-22.5v-17.2h22.5c4.8,0,8.5,3.9,8.5,8.7C456.8,256.3,453,260,448.2,260z"/>
<path id="XMLID_633_" class="st0" d="M476.6,197.2v77h18.5v-77H476.6z"/>
<path id="XMLID_631_" class="st0" d="M124.2,300.4V284H77.1v76.2h18.3v-29.9h21.5v-16.4H95.4v-13.5H124.2z"/>
<path id="XMLID_629_" class="st0" d="M149.6,343.9V284h-18.3v76.2h55v-16.4H149.6z"/>
<path id="XMLID_627_" class="st1" d="M234,230v13.9l0.5-13.6L234,230z"/>
<path id="XMLID_619_" class="st0" d="M452.3,297.9c-7.8,0-14.8,3.7-19.3,9.5h-36.1V201.2c0-12.5-10.2-22.7-22.7-22.7H217.7
	c-12.5,0-22.7,10.2-22.7,22.7V221h-39.6c-4.4-5.8-11.4-9.5-19.3-9.5c-13.4,0-24.3,10.9-24.3,24.3c0,13.4,10.9,24.3,24.3,24.3
	c7.9,0,14.9-3.7,19.3-9.5H195v106c0,12.5,10.2,22.7,22.7,22.7h156.6c12.5,0,22.7-10.2,22.7-22.7v-19.6h36c4.4,5.8,11.4,9.5,19.3,9.5
	c13.4,0,24.3-10.9,24.3-24.3C476.6,308.7,465.7,297.9,452.3,297.9z M145,247.6c-2.5,1.8-5.5,2.9-8.8,2.9c-8.2,0-14.8-6.6-14.8-14.8
	c0-8.2,6.6-14.8,14.8-14.8c3.3,0,6.3,1.1,8.8,2.9c3.7,2.7,6,7,6,11.9C151,240.6,148.6,245,145,247.6z M254.2,359.9
	c-21,0-38-17-38-37.9c0-21,17-38,38-38c20.9,0,37.9,17,37.9,38C292.2,342.9,275.2,359.9,254.2,359.9z M294.7,273.7H277v-43.8
	l-21.9,13.9l-20.6-13.5l-0.5,13.6v29.8h-17.7v-76.2l39.1,25.3l39.3-25.3V273.7z M375.7,360.3L336.6,335l-39.3,25.3V284h17.7v43.8
	l21.9-13.9l17.1,11.2l4.1,2.7V284h17.7V360.3z M337.7,273.7c-20.9,0-37.9-17-37.9-37.9c0-21,17-38,37.9-38c21,0,38,17,38,38
	C375.7,256.7,358.7,273.7,337.7,273.7z M452.3,337c-3.3,0-6.3-1.1-8.8-2.9c-3.6-2.7-6-7-6-11.9c0-4.9,2.4-9.2,6-11.9
	c2.5-1.8,5.5-2.9,8.8-2.9c8.2,0,14.8,6.6,14.8,14.8C467.1,330.3,460.5,337,452.3,337z"/>
<path id="XMLID_618_" class="st0" d="M269.9,306.4c4.2,4.2,6.5,9.7,6.5,15.6c0,5.9-2.3,11.4-6.5,15.6c-4.2,4.2-9.7,6.4-15.6,6.4
	c-5.9,0-11.5-2.3-15.6-6.4c-4.2-4.2-6.5-9.7-6.5-15.6c0-5.9,2.3-11.4,6.5-15.6c4.2-4.1,9.7-6.5,15.6-6.5
	C260.1,299.9,265.7,302.3,269.9,306.4z"/>
<path id="XMLID_609_" class="st0" d="M353.3,220.1c-4.2-4.2-9.7-6.5-15.6-6.5c-5.9,0-11.4,2.3-15.6,6.5c-4.2,4.2-6.4,9.7-6.4,15.6
	c0,5.9,2.3,11.4,6.4,15.6c4.2,4.1,9.7,6.4,15.6,6.4c5.9,0,11.4-2.4,15.6-6.4c4.2-4.2,6.5-9.7,6.5-15.6
	C359.8,229.9,357.5,224.3,353.3,220.1z M353.3,220.1c-4.2-4.2-9.7-6.5-15.6-6.5c-5.9,0-11.4,2.3-15.6,6.5c-4.2,4.2-6.4,9.7-6.4,15.6
	c0,5.9,2.3,11.4,6.4,15.6c4.2,4.1,9.7,6.4,15.6,6.4c5.9,0,11.4-2.4,15.6-6.4c4.2-4.2,6.5-9.7,6.5-15.6
	C359.8,229.9,357.5,224.3,353.3,220.1z M234,230v13.9l0.5-13.6L234,230z M353.3,220.1c-4.2-4.2-9.7-6.5-15.6-6.5
	c-5.9,0-11.4,2.3-15.6,6.5c-4.2,4.2-6.4,9.7-6.4,15.6c0,5.9,2.3,11.4,6.4,15.6c4.2,4.1,9.7,6.4,15.6,6.4c5.9,0,11.4-2.4,15.6-6.4
	c4.2-4.2,6.5-9.7,6.5-15.6C359.8,229.9,357.5,224.3,353.3,220.1z M353.3,220.1c-4.2-4.2-9.7-6.5-15.6-6.5c-5.9,0-11.4,2.3-15.6,6.5
	c-4.2,4.2-6.4,9.7-6.4,15.6c0,5.9,2.3,11.4,6.4,15.6c4.2,4.1,9.7,6.4,15.6,6.4c5.9,0,11.4-2.4,15.6-6.4c4.2-4.2,6.5-9.7,6.5-15.6
	C359.8,229.9,357.5,224.3,353.3,220.1z M353.3,220.1c-4.2-4.2-9.7-6.5-15.6-6.5c-5.9,0-11.4,2.3-15.6,6.5c-4.2,4.2-6.4,9.7-6.4,15.6
	c0,5.9,2.3,11.4,6.4,15.6c4.2,4.1,9.7,6.4,15.6,6.4c5.9,0,11.4-2.4,15.6-6.4c4.2-4.2,6.5-9.7,6.5-15.6
	C359.8,229.9,357.5,224.3,353.3,220.1z M353.3,220.1c-4.2-4.2-9.7-6.5-15.6-6.5c-5.9,0-11.4,2.3-15.6,6.5c-4.2,4.2-6.4,9.7-6.4,15.6
	c0,5.9,2.3,11.4,6.4,15.6c4.2,4.1,9.7,6.4,15.6,6.4c5.9,0,11.4-2.4,15.6-6.4c4.2-4.2,6.5-9.7,6.5-15.6
	C359.8,229.9,357.5,224.3,353.3,220.1z M353.3,220.1c-4.2-4.2-9.7-6.5-15.6-6.5c-5.9,0-11.4,2.3-15.6,6.5c-4.2,4.2-6.4,9.7-6.4,15.6
	c0,5.9,2.3,11.4,6.4,15.6c4.2,4.1,9.7,6.4,15.6,6.4c5.9,0,11.4-2.4,15.6-6.4c4.2-4.2,6.5-9.7,6.5-15.6
	C359.8,229.9,357.5,224.3,353.3,220.1z"/>
</svg>
