<?xml version="1.0" encoding="UTF-8" standalone="no"?>
<!-- Created with Inkscape (http://www.inkscape.org/) -->

<svg
   xmlns:dc="http://purl.org/dc/elements/1.1/"
   xmlns:cc="http://creativecommons.org/ns#"
   xmlns:rdf="http://www.w3.org/1999/02/22-rdf-syntax-ns#"
   xmlns:svg="http://www.w3.org/2000/svg"
   xmlns="http://www.w3.org/2000/svg"
   version="1.1"
   width="100%"
   height="100%"
   viewBox="0 0 460.90002 221.30001"
   id="Calque_1"
   xml:space="preserve"><metadata
     id="metadata17"><rdf:RDF><cc:Work
         rdf:about=""><dc:format>image/svg+xml</dc:format><dc:type
           rdf:resource="http://purl.org/dc/dcmitype/StillImage" /><dc:title></dc:title></cc:Work></rdf:RDF></metadata><defs
     id="defs15" /><style
     type="text/css"
     id="style3" /><path
     d="m 424.2,58 c 0,0 6.9,-8.9 3.4,-20.8 -4.8,-16.6 -24.2,-16.6 -24.2,-16.6 h -39.3 v 85 h 46.1 c 0,0 24.4,-2 24.4,-24.4 C 434.6,62.7 424.2,58 424.2,58 z M 384.4,36.4 h 18.2 c 5.2,0 9.5,4.2 9.5,9.5 0,5.2 -4.3,9.4 -9.5,9.4 H 384.4 V 36.4 z m 24.9,53.5 H 384.5 V 71 h 24.8 c 5.2,0 9.4,4.3 9.4,9.5 0,5.2 -4.2,9.4 -9.4,9.4 z"
     id="XMLID_424_"
     style="fill:#e2c33a" /><path
     d="m 440.5,20.6 v 85 h 20.4 v -85 h -20.4 z"
     id="XMLID_420_"
     style="fill:#e2c33a" /><path
     d="M 52,134.4 V 116.3 H 0 v 84.1 h 20.2 v -33 H 43.9 V 149.3 H 20.2 V 134.4 H 52 z"
     id="XMLID_418_"
     style="fill:#e2c33a" /><path
     d="m 79.9,182.3 v -66 H 59.7 v 84.1 h 60.6 V 182.3 H 79.9 z"
     id="XMLID_398_"
     style="fill:#e2c33a" /><path
     d="M 173,56.7 V 72 l 0.6,-14.9 -0.6,-0.4 z"
     id="XMLID_313_"
     style="fill:#47b591" /><path
     d="m 413.7,131.6 c -8.6,0 -16.3,4.1 -21.2,10.5 H 352.7 V 25 c 0,-13.7 -11.2,-25 -25,-25 H 155 C 141.3,0 130,11.3 130,25 V 46.8 H 86.4 C 81.5,40.4 73.8,36.3 65.2,36.3 c -14.8,0 -26.8,12 -26.8,26.8 0,14.8 12,26.8 26.8,26.8 8.7,0 16.4,-4.1 21.3,-10.5 h 43.6 v 116.9 c 0,13.8 11.3,25 25,25 h 172.7 c 13.8,0 25,-11.2 25,-25 v -21.7 h 39.7 c 4.9,6.4 12.6,10.5 21.3,10.5 14.8,0 26.8,-12 26.8,-26.8 0,-14.8 -12.1,-26.7 -26.9,-26.7 z M 74.9,76.2 c -2.7,2 -6.1,3.2 -9.7,3.2 -9,0 -16.3,-7.3 -16.3,-16.3 0,-9 7.3,-16.3 16.3,-16.3 3.6,0 7,1.2 9.7,3.2 4,2.9 6.7,7.7 6.7,13.1 -0.1,5.4 -2.7,10.2 -6.7,13.1 z M 195.4,200 c -23.1,0 -41.9,-18.7 -41.9,-41.8 0,-23.1 18.7,-41.9 41.9,-41.9 23.1,0 41.8,18.7 41.8,41.9 0,23.1 -18.7,41.8 -41.8,41.8 z m 44.5,-95.1 H 220.4 V 56.6 L 196.3,72 173.6,57.2 173,72.1 V 105 H 153.5 V 20.9 l 43.1,27.8 43.3,-27.8 v 84 z m 89.3,95.5 -43.1,-27.9 -43.3,27.9 v -84.1 h 19.5 v 48.3 l 24.1,-15.4 18.9,12.3 4.5,2.9 v -48.2 h 19.5 v 84.2 z m -41.8,-95.5 c -23.1,0 -41.8,-18.7 -41.8,-41.8 0,-23.1 18.7,-41.9 41.8,-41.9 23.1,0 41.9,18.7 41.9,41.9 -0.1,23.1 -18.8,41.8 -41.9,41.8 z m 126.3,69.8 c -3.6,0 -7,-1.2 -9.7,-3.2 -4,-2.9 -6.6,-7.7 -6.6,-13.1 0,-5.4 2.6,-10.2 6.7,-13.1 2.7,-2 6,-3.2 9.7,-3.2 9,0 16.3,7.3 16.3,16.3 0,9 -7.3,16.3 -16.4,16.3 z"
     id="XMLID_473_"
     style="fill:#3fb498" /><path
     d="m 212.6,140.9 c 4.6,4.6 7.1,10.7 7.1,17.2 0,6.5 -2.5,12.6 -7.1,17.2 -4.6,4.6 -10.7,7.1 -17.2,7.1 -6.5,0 -12.6,-2.5 -17.2,-7.1 -4.6,-4.6 -7.1,-10.7 -7.1,-17.2 0,-6.5 2.5,-12.6 7.1,-17.2 4.6,-4.5 10.7,-7.1 17.2,-7.1 6.4,0 12.6,2.6 17.2,7.1 z"
     id="XMLID_439_"
     style="fill:#3fb498" /><path
     d="m 304.6,45.9 c -4.6,-4.6 -10.7,-7.1 -17.2,-7.1 -6.5,0 -12.6,2.5 -17.2,7.1 -4.6,4.6 -7.1,10.7 -7.1,17.2 0,6.5 2.5,12.6 7.1,17.2 4.6,4.5 10.7,7.1 17.2,7.1 6.5,0 12.6,-2.6 17.2,-7.1 4.6,-4.6 7.1,-10.7 7.1,-17.2 0.1,-6.5 -2.4,-12.6 -7.1,-17.2 z m 0,0 c -4.6,-4.6 -10.7,-7.1 -17.2,-7.1 -6.5,0 -12.6,2.5 -17.2,7.1 -4.6,4.6 -7.1,10.7 -7.1,17.2 0,6.5 2.5,12.6 7.1,17.2 4.6,4.5 10.7,7.1 17.2,7.1 6.5,0 12.6,-2.6 17.2,-7.1 4.6,-4.6 7.1,-10.7 7.1,-17.2 0.1,-6.5 -2.4,-12.6 -7.1,-17.2 z M 173,56.7 V 72 L 173.6,57.1 173,56.7 z M 304.6,45.9 c -4.6,-4.6 -10.7,-7.1 -17.2,-7.1 -6.5,0 -12.6,2.5 -17.2,7.1 -4.6,4.6 -7.1,10.7 -7.1,17.2 0,6.5 2.5,12.6 7.1,17.2 4.6,4.5 10.7,7.1 17.2,7.1 6.5,0 12.6,-2.6 17.2,-7.1 4.6,-4.6 7.1,-10.7 7.1,-17.2 0.1,-6.5 -2.4,-12.6 -7.1,-17.2 z m 0,0 c -4.6,-4.6 -10.7,-7.1 -17.2,-7.1 -6.5,0 -12.6,2.5 -17.2,7.1 -4.6,4.6 -7.1,10.7 -7.1,17.2 0,6.5 2.5,12.6 7.1,17.2 4.6,4.5 10.7,7.1 17.2,7.1 6.5,0 12.6,-2.6 17.2,-7.1 4.6,-4.6 7.1,-10.7 7.1,-17.2 0.1,-6.5 -2.4,-12.6 -7.1,-17.2 z m 0,0 c -4.6,-4.6 -10.7,-7.1 -17.2,-7.1 -6.5,0 -12.6,2.5 -17.2,7.1 -4.6,4.6 -7.1,10.7 -7.1,17.2 0,6.5 2.5,12.6 7.1,17.2 4.6,4.5 10.7,7.1 17.2,7.1 6.5,0 12.6,-2.6 17.2,-7.1 4.6,-4.6 7.1,-10.7 7.1,-17.2 0.1,-6.5 -2.4,-12.6 -7.1,-17.2 z m 0,0 c -4.6,-4.6 -10.7,-7.1 -17.2,-7.1 -6.5,0 -12.6,2.5 -17.2,7.1 -4.6,4.6 -7.1,10.7 -7.1,17.2 0,6.5 2.5,12.6 7.1,17.2 4.6,4.5 10.7,7.1 17.2,7.1 6.5,0 12.6,-2.6 17.2,-7.1 4.6,-4.6 7.1,-10.7 7.1,-17.2 0.1,-6.5 -2.4,-12.6 -7.1,-17.2 z m 0,0 c -4.6,-4.6 -10.7,-7.1 -17.2,-7.1 -6.5,0 -12.6,2.5 -17.2,7.1 -4.6,4.6 -7.1,10.7 -7.1,17.2 0,6.5 2.5,12.6 7.1,17.2 4.6,4.5 10.7,7.1 17.2,7.1 6.5,0 12.6,-2.6 17.2,-7.1 4.6,-4.6 7.1,-10.7 7.1,-17.2 0.1,-6.5 -2.4,-12.6 -7.1,-17.2 z"
     id="XMLID_445_"
     style="fill:#3fb498" /></svg>