<?xml version="1.0" encoding="utf-8"?>
<!-- Generator: Adobe Illustrator 19.0.0, SVG Export Plug-In . SVG Version: 6.00 Build 0)  -->
<svg version="1.1" id="Calque_1" xmlns="http://www.w3.org/2000/svg" xmlns:xlink="http://www.w3.org/1999/xlink" x="0px" y="0px"
	 viewBox="0 0 566.9 566.9" style="enable-background:new 0 0 566.9 566.9;" xml:space="preserve">
<style type="text/css">
	.st0{fill:#E2C33A;}
	.st1{fill:#47B591;}
	.st2{fill:#3FB498;}
</style>
<path id="XMLID_424_" class="st0" d="M477.3,230.6c0,0,6.9-8.9,3.4-20.8c-4.8-16.6-24.2-16.6-24.2-16.6h-39.3v85h46.1
	c0,0,24.4-2,24.4-24.4C487.7,235.3,477.3,230.6,477.3,230.6z M437.5,209h18.2c5.2,0,9.5,4.2,9.5,9.5c0,5.2-4.3,9.4-9.5,9.4h-18.2
	V209z M462.4,262.5h-24.8v-18.9h24.8c5.2,0,9.4,4.3,9.4,9.5C471.8,258.3,467.6,262.5,462.4,262.5z"/>
<path id="XMLID_420_" class="st0" d="M493.6,193.2v85H514v-85H493.6z"/>
<path id="XMLID_418_" class="st0" d="M105.1,307v-18.1h-52V373h20.2v-33h23.7v-18.1H73.3V307H105.1z"/>
<path id="XMLID_398_" class="st0" d="M133,354.9v-66h-20.2V373h60.6v-18.1H133z"/>
<path id="XMLID_313_" class="st1" d="M226.1,229.3v15.3l0.6-14.9L226.1,229.3z"/>
<path id="XMLID_473_" class="st2" d="M466.8,304.2c-8.6,0-16.3,4.1-21.2,10.5h-39.8V197.6c0-13.7-11.2-25-25-25H208.1
	c-13.7,0-25,11.3-25,25v21.8h-43.6c-4.9-6.4-12.6-10.5-21.2-10.5c-14.8,0-26.8,12-26.8,26.8c0,14.8,12,26.8,26.8,26.8
	c8.7,0,16.4-4.1,21.3-10.5h43.6v116.9c0,13.8,11.3,25,25,25h172.7c13.8,0,25-11.2,25-25v-21.7h39.7c4.9,6.4,12.6,10.5,21.3,10.5
	c14.8,0,26.8-12,26.8-26.8S481.6,304.2,466.8,304.2z M128,248.8c-2.7,2-6.1,3.2-9.7,3.2c-9,0-16.3-7.3-16.3-16.3
	c0-9,7.3-16.3,16.3-16.3c3.6,0,7,1.2,9.7,3.2c4,2.9,6.7,7.7,6.7,13.1C134.6,241.1,132,245.9,128,248.8z M248.5,372.6
	c-23.1,0-41.9-18.7-41.9-41.8c0-23.1,18.7-41.9,41.9-41.9c23.1,0,41.8,18.7,41.8,41.9C290.3,353.9,271.6,372.6,248.5,372.6z
	 M293,277.5h-19.5v-48.3l-24.1,15.4l-22.7-14.8l-0.6,14.9v32.9h-19.5v-84.1l43.1,27.8l43.3-27.8V277.5z M382.3,373l-43.1-27.9
	L295.9,373v-84.1h19.5v48.3l24.1-15.4l18.9,12.3l4.5,2.9v-48.2h19.5V373z M340.5,277.5c-23.1,0-41.8-18.7-41.8-41.8
	c0-23.1,18.7-41.9,41.8-41.9c23.1,0,41.9,18.7,41.9,41.9C382.3,258.8,363.6,277.5,340.5,277.5z M466.8,347.3c-3.6,0-7-1.2-9.7-3.2
	c-4-2.9-6.6-7.7-6.6-13.1s2.6-10.2,6.7-13.1c2.7-2,6-3.2,9.7-3.2c9,0,16.3,7.3,16.3,16.3C483.2,340,475.9,347.3,466.8,347.3z"/>
<path id="XMLID_439_" class="st2" d="M265.7,313.5c4.6,4.6,7.1,10.7,7.1,17.2c0,6.5-2.5,12.6-7.1,17.2c-4.6,4.6-10.7,7.1-17.2,7.1
	c-6.5,0-12.6-2.5-17.2-7.1c-4.6-4.6-7.1-10.7-7.1-17.2c0-6.5,2.5-12.6,7.1-17.2c4.6-4.5,10.7-7.1,17.2-7.1
	C254.9,306.4,261.1,309,265.7,313.5z"/>
<path id="XMLID_445_" class="st2" d="M357.7,218.5c-4.6-4.6-10.7-7.1-17.2-7.1c-6.5,0-12.6,2.5-17.2,7.1c-4.6,4.6-7.1,10.7-7.1,17.2
	c0,6.5,2.5,12.6,7.1,17.2c4.6,4.5,10.7,7.1,17.2,7.1c6.5,0,12.6-2.6,17.2-7.1c4.6-4.6,7.1-10.7,7.1-17.2
	C364.9,229.2,362.4,223.1,357.7,218.5z M357.7,218.5c-4.6-4.6-10.7-7.1-17.2-7.1c-6.5,0-12.6,2.5-17.2,7.1
	c-4.6,4.6-7.1,10.7-7.1,17.2c0,6.5,2.5,12.6,7.1,17.2c4.6,4.5,10.7,7.1,17.2,7.1c6.5,0,12.6-2.6,17.2-7.1c4.6-4.6,7.1-10.7,7.1-17.2
	C364.9,229.2,362.4,223.1,357.7,218.5z M226.1,229.3v15.3l0.6-14.9L226.1,229.3z M357.7,218.5c-4.6-4.6-10.7-7.1-17.2-7.1
	c-6.5,0-12.6,2.5-17.2,7.1c-4.6,4.6-7.1,10.7-7.1,17.2c0,6.5,2.5,12.6,7.1,17.2c4.6,4.5,10.7,7.1,17.2,7.1c6.5,0,12.6-2.6,17.2-7.1
	c4.6-4.6,7.1-10.7,7.1-17.2C364.9,229.2,362.4,223.1,357.7,218.5z M357.7,218.5c-4.6-4.6-10.7-7.1-17.2-7.1
	c-6.5,0-12.6,2.5-17.2,7.1c-4.6,4.6-7.1,10.7-7.1,17.2c0,6.5,2.5,12.6,7.1,17.2c4.6,4.5,10.7,7.1,17.2,7.1c6.5,0,12.6-2.6,17.2-7.1
	c4.6-4.6,7.1-10.7,7.1-17.2C364.9,229.2,362.4,223.1,357.7,218.5z M357.7,218.5c-4.6-4.6-10.7-7.1-17.2-7.1
	c-6.5,0-12.6,2.5-17.2,7.1c-4.6,4.6-7.1,10.7-7.1,17.2c0,6.5,2.5,12.6,7.1,17.2c4.6,4.5,10.7,7.1,17.2,7.1c6.5,0,12.6-2.6,17.2-7.1
	c4.6-4.6,7.1-10.7,7.1-17.2C364.9,229.2,362.4,223.1,357.7,218.5z M357.7,218.5c-4.6-4.6-10.7-7.1-17.2-7.1
	c-6.5,0-12.6,2.5-17.2,7.1c-4.6,4.6-7.1,10.7-7.1,17.2c0,6.5,2.5,12.6,7.1,17.2c4.6,4.5,10.7,7.1,17.2,7.1c6.5,0,12.6-2.6,17.2-7.1
	c4.6-4.6,7.1-10.7,7.1-17.2C364.9,229.2,362.4,223.1,357.7,218.5z M357.7,218.5c-4.6-4.6-10.7-7.1-17.2-7.1
	c-6.5,0-12.6,2.5-17.2,7.1c-4.6,4.6-7.1,10.7-7.1,17.2c0,6.5,2.5,12.6,7.1,17.2c4.6,4.5,10.7,7.1,17.2,7.1c6.5,0,12.6-2.6,17.2-7.1
	c4.6-4.6,7.1-10.7,7.1-17.2C364.9,229.2,362.4,223.1,357.7,218.5z"/>
</svg>
