<?xml version="1.0" encoding="utf-8"?>
<!-- Generator: Adobe Illustrator 19.0.0, SVG Export Plug-In . SVG Version: 6.00 Build 0)  -->
<svg version="1.1" id="Calque_1" xmlns="http://www.w3.org/2000/svg" xmlns:xlink="http://www.w3.org/1999/xlink" x="0px" y="0px"
	 viewBox="0 0 566.9 566.9" style="enable-background:new 0 0 566.9 566.9;" xml:space="preserve">
<path id="XMLID_481_" d="M492.7,226.3c0,0,7.5-9.6,3.7-22.6c-5.2-18-26.3-18-26.3-18h-42.7V278h50.1c0,0,26.5-2.1,26.5-26.5
	C504.1,231.4,492.7,226.3,492.7,226.3z M449.6,202.9h19.7c5.7,0,10.4,4.5,10.4,10.4c0,5.7-4.7,10.2-10.4,10.2h-19.7V202.9z
	 M476.5,260.9h-26.9v-20.6h26.9c5.7,0,10.2,4.7,10.2,10.4C486.7,256.4,482.2,260.9,476.5,260.9z"/>
<path id="XMLID_474_" d="M512.7,185.7V278h22.1v-92.2H512.7z"/>
<path id="XMLID_469_" d="M88.6,309.3v-19.7H32.1v91.3h21.9v-35.8h25.7v-19.7H54.1v-16.2H88.6z"/>
<path id="XMLID_467_" d="M118.9,361.3v-71.6H97v91.3h65.8v-19.7H118.9z"/>
<path id="XMLID_465_" d="M220,224.9v16.7l0.6-16.2L220,224.9z"/>
<path id="XMLID_452_" d="M481.4,306.2c-9.4,0-17.7,4.4-23.1,11.4h-43.2V190.4c0-14.9-12.2-27.1-27.1-27.1H200.5
	c-14.9,0-27.1,12.2-27.1,27.1v23.7H126c-5.3-6.9-13.7-11.4-23.1-11.4c-16.1,0-29.1,13-29.1,29.1c0,16.1,13,29.1,29.1,29.1
	c9.4,0,17.8-4.5,23.1-11.4h47.3v127c0,14.9,12.2,27.1,27.1,27.1H388c14.9,0,27.1-12.2,27.1-27.1V353h43.2
	c5.3,6.9,13.7,11.4,23.1,11.4c16.1,0,29.1-13,29.1-29.1S497.4,306.2,481.4,306.2z M113.5,246.1c-3,2.2-6.6,3.5-10.5,3.5
	c-9.8,0-17.7-7.9-17.7-17.7c0-9.8,7.9-17.7,17.7-17.7c3.9,0,7.6,1.3,10.5,3.5c4.4,3.2,7.2,8.4,7.2,14.3
	C120.6,237.7,117.8,242.9,113.5,246.1z M244.3,380.5c-25.1,0-45.4-20.3-45.4-45.4c0-25.1,20.3-45.4,45.4-45.4
	c25.1,0,45.4,20.3,45.4,45.4C289.7,360.2,269.3,380.5,244.3,380.5z M292.7,277.3h-21.2v-52.5l-26.2,16.7l-24.7-16.1l-0.6,16.2v35.7
	h-21.2V186l46.8,30.2l47.1-30.2V277.3z M389.6,380.9l-46.8-30.3l-47.1,30.3v-91.3h21.2v52.5l26.2-16.7l20.5,13.4l4.9,3.2v-52.4h21.2
	V380.9z M344.2,277.3c-25.1,0-45.4-20.3-45.4-45.4c0-25.1,20.3-45.4,45.4-45.4c25.1,0,45.4,20.3,45.4,45.4
	C389.6,256.9,369.3,277.3,344.2,277.3z M481.4,353c-3.9,0-7.6-1.3-10.5-3.5c-4.4-3.2-7.2-8.4-7.2-14.2s2.8-11,7.2-14.2
	c2.9-2.2,6.6-3.5,10.5-3.5c9.8,0,17.7,7.9,17.7,17.7S491.2,353,481.4,353z"/>
<path id="XMLID_451_" d="M263,316.4c5,5,7.7,11.7,7.7,18.7c0,7-2.7,13.7-7.7,18.7c-5,5-11.6,7.7-18.7,7.7c-7.1,0-13.7-2.7-18.7-7.7
	c-5-5-7.7-11.7-7.7-18.7c0-7,2.7-13.7,7.7-18.7c5-4.9,11.6-7.7,18.7-7.7C251.3,308.6,258,311.5,263,316.4z"/>
<path id="XMLID_391_" d="M362.9,213.1c-5-5-11.6-7.7-18.7-7.7c-7,0-13.7,2.7-18.7,7.7c-5,5-7.7,11.6-7.7,18.7c0,7,2.7,13.7,7.7,18.7
	c5,4.9,11.7,7.7,18.7,7.7c7.1,0,13.7-2.8,18.7-7.7c5-5,7.7-11.7,7.7-18.7C370.6,224.8,367.9,218.2,362.9,213.1z M362.9,213.1
	c-5-5-11.6-7.7-18.7-7.7c-7,0-13.7,2.7-18.7,7.7c-5,5-7.7,11.6-7.7,18.7c0,7,2.7,13.7,7.7,18.7c5,4.9,11.7,7.7,18.7,7.7
	c7.1,0,13.7-2.8,18.7-7.7c5-5,7.7-11.7,7.7-18.7C370.6,224.8,367.9,218.2,362.9,213.1z M220,224.9v16.7l0.6-16.2L220,224.9z
	 M362.9,213.1c-5-5-11.6-7.7-18.7-7.7c-7,0-13.7,2.7-18.7,7.7c-5,5-7.7,11.6-7.7,18.7c0,7,2.7,13.7,7.7,18.7
	c5,4.9,11.7,7.7,18.7,7.7c7.1,0,13.7-2.8,18.7-7.7c5-5,7.7-11.7,7.7-18.7C370.6,224.8,367.9,218.2,362.9,213.1z M362.9,213.1
	c-5-5-11.6-7.7-18.7-7.7c-7,0-13.7,2.7-18.7,7.7c-5,5-7.7,11.6-7.7,18.7c0,7,2.7,13.7,7.7,18.7c5,4.9,11.7,7.7,18.7,7.7
	c7.1,0,13.7-2.8,18.7-7.7c5-5,7.7-11.7,7.7-18.7C370.6,224.8,367.9,218.2,362.9,213.1z M362.9,213.1c-5-5-11.6-7.7-18.7-7.7
	c-7,0-13.7,2.7-18.7,7.7c-5,5-7.7,11.6-7.7,18.7c0,7,2.7,13.7,7.7,18.7c5,4.9,11.7,7.7,18.7,7.7c7.1,0,13.7-2.8,18.7-7.7
	c5-5,7.7-11.7,7.7-18.7C370.6,224.8,367.9,218.2,362.9,213.1z M362.9,213.1c-5-5-11.6-7.7-18.7-7.7c-7,0-13.7,2.7-18.7,7.7
	c-5,5-7.7,11.6-7.7,18.7c0,7,2.7,13.7,7.7,18.7c5,4.9,11.7,7.7,18.7,7.7c7.1,0,13.7-2.8,18.7-7.7c5-5,7.7-11.7,7.7-18.7
	C370.6,224.8,367.9,218.2,362.9,213.1z M362.9,213.1c-5-5-11.6-7.7-18.7-7.7c-7,0-13.7,2.7-18.7,7.7c-5,5-7.7,11.6-7.7,18.7
	c0,7,2.7,13.7,7.7,18.7c5,4.9,11.7,7.7,18.7,7.7c7.1,0,13.7-2.8,18.7-7.7c5-5,7.7-11.7,7.7-18.7
	C370.6,224.8,367.9,218.2,362.9,213.1z"/>
</svg>
