<?xml version="1.0" encoding="utf-8"?>
<!-- Generator: Adobe Illustrator 19.0.0, SVG Export Plug-In . SVG Version: 6.00 Build 0)  -->
<svg version="1.1" id="Calque_1" xmlns="http://www.w3.org/2000/svg" xmlns:xlink="http://www.w3.org/1999/xlink" x="0px" y="0px"
	 viewBox="0 0 566.9 566.9" style="enable-background:new 0 0 566.9 566.9;" xml:space="preserve">
<style type="text/css">
	.st0{fill:#FFFFFF;}
</style>
<rect id="XMLID_1_" x="0.3" y="-0.8" width="566.4" height="567.8"/>
<path id="XMLID_481_" class="st0" d="M477.2,230.6c0,0,7-8.9,3.4-20.9c-4.9-16.7-24.3-16.7-24.3-16.7h-39.5v85.4h46.4
	c0,0,24.6-2,24.6-24.6C487.7,235.3,477.2,230.6,477.2,230.6z M437.2,208.9h18.3c5.2,0,9.6,4.2,9.6,9.6c0,5.2-4.3,9.4-9.6,9.4h-18.3
	V208.9z M462.2,262.6h-24.9v-19h24.9c5.3,0,9.5,4.3,9.5,9.6C471.6,258.4,467.4,262.6,462.2,262.6z"/>
<path id="XMLID_474_" class="st0" d="M495.6,193v85.4h20.5V193H495.6z"/>
<path id="XMLID_469_" class="st0" d="M103,307.4v-18.2H50.8v84.5h20.3v-33.2h23.8v-18.2H71.1v-15H103z"/>
<path id="XMLID_467_" class="st0" d="M131.1,355.5v-66.3h-20.3v84.5h61v-18.2H131.1z"/>
<path id="XMLID_465_" class="st0" d="M220,224.9v16.7l0.6-16.2L220,224.9z"/>
<path id="XMLID_452_" class="st0" d="M466.7,304.5c-8.7,0-16.4,4.1-21.3,10.5h-40V197.3c0-13.8-11.3-25.1-25.1-25.1H206.6
	c-13.8,0-25.1,11.3-25.1,25.1v21.9h-43.8c-4.9-6.4-12.7-10.5-21.3-10.5c-14.9,0-26.9,12-26.9,26.9c0,14.9,12,26.9,26.9,26.9
	c8.7,0,16.5-4.1,21.4-10.6h43.8v117.5c0,13.8,11.3,25.1,25.1,25.1h173.6c13.8,0,25.1-11.3,25.1-25.1v-21.8h39.9
	c4.9,6.4,12.7,10.6,21.4,10.6c14.9,0,26.9-12,26.9-26.9C493.6,316.6,481.5,304.5,466.7,304.5z M126.1,248.9c-2.7,2-6.1,3.2-9.8,3.2
	c-9.1,0-16.4-7.3-16.4-16.4c0-9.1,7.3-16.4,16.4-16.4c3.6,0,7,1.2,9.7,3.2c4.1,3,6.7,7.8,6.7,13.2
	C132.7,241.1,130.1,245.9,126.1,248.9z M247.2,373.3c-23.2,0-42.1-18.8-42.1-42c0-23.2,18.8-42.1,42.1-42.1c23.2,0,42,18.8,42,42.1
	C289.2,354.5,270.4,373.3,247.2,373.3z M292,277.7h-19.6v-48.6l-24.2,15.5l-22.9-14.9l-0.6,15v33h-19.6v-84.5l43.3,28l43.6-28V277.7
	z M381.7,373.7l-43.3-28l-43.6,28v-84.5h19.6v48.6l24.2-15.4l19,12.4l4.5,2.9v-48.5h19.6V373.7z M339.7,277.7c-23.2,0-42-18.8-42-42
	c0-23.2,18.8-42.1,42-42.1c23.2,0,42.1,18.8,42.1,42.1C381.7,258.9,362.9,277.7,339.7,277.7z M466.7,347.9c-3.6,0-7-1.2-9.8-3.2
	c-4-3-6.6-7.8-6.6-13.2s2.6-10.2,6.7-13.2c2.7-2,6.1-3.2,9.7-3.2c9.1,0,16.4,7.3,16.4,16.4S475.7,347.9,466.7,347.9z"/>
<path id="XMLID_451_" class="st0" d="M264.5,313.9c4.7,4.7,7.2,10.8,7.2,17.3c0,6.5-2.5,12.7-7.2,17.3c-4.6,4.6-10.8,7.1-17.3,7.1
	c-6.5,0-12.7-2.5-17.3-7.1c-4.7-4.7-7.2-10.8-7.2-17.3c0-6.5,2.5-12.7,7.2-17.3c4.6-4.5,10.8-7.2,17.3-7.2
	C253.7,306.8,259.8,309.4,264.5,313.9z"/>
<path id="XMLID_391_" class="st0" d="M357,218.4c-4.7-4.7-10.8-7.2-17.3-7.2c-6.5,0-12.7,2.5-17.3,7.2c-4.6,4.7-7.1,10.8-7.1,17.3
	c0,6.5,2.5,12.7,7.1,17.3c4.7,4.5,10.8,7.1,17.3,7.1c6.5,0,12.7-2.6,17.3-7.1c4.7-4.7,7.2-10.8,7.2-17.3
	C364.2,229.1,361.7,223,357,218.4z M357,218.4c-4.7-4.7-10.8-7.2-17.3-7.2c-6.5,0-12.7,2.5-17.3,7.2c-4.6,4.7-7.1,10.8-7.1,17.3
	c0,6.5,2.5,12.7,7.1,17.3c4.7,4.5,10.8,7.1,17.3,7.1c6.5,0,12.7-2.6,17.3-7.1c4.7-4.7,7.2-10.8,7.2-17.3
	C364.2,229.1,361.7,223,357,218.4z M224.7,229.3v15.4l0.6-15L224.7,229.3z M357,218.4c-4.7-4.7-10.8-7.2-17.3-7.2
	c-6.5,0-12.7,2.5-17.3,7.2c-4.6,4.7-7.1,10.8-7.1,17.3c0,6.5,2.5,12.7,7.1,17.3c4.7,4.5,10.8,7.1,17.3,7.1c6.5,0,12.7-2.6,17.3-7.1
	c4.7-4.7,7.2-10.8,7.2-17.3C364.2,229.1,361.7,223,357,218.4z M357,218.4c-4.7-4.7-10.8-7.2-17.3-7.2c-6.5,0-12.7,2.5-17.3,7.2
	c-4.6,4.7-7.1,10.8-7.1,17.3c0,6.5,2.5,12.7,7.1,17.3c4.7,4.5,10.8,7.1,17.3,7.1c6.5,0,12.7-2.6,17.3-7.1c4.7-4.7,7.2-10.8,7.2-17.3
	C364.2,229.1,361.7,223,357,218.4z M357,218.4c-4.7-4.7-10.8-7.2-17.3-7.2c-6.5,0-12.7,2.5-17.3,7.2c-4.6,4.7-7.1,10.8-7.1,17.3
	c0,6.5,2.5,12.7,7.1,17.3c4.7,4.5,10.8,7.1,17.3,7.1c6.5,0,12.7-2.6,17.3-7.1c4.7-4.7,7.2-10.8,7.2-17.3
	C364.2,229.1,361.7,223,357,218.4z M357,218.4c-4.7-4.7-10.8-7.2-17.3-7.2c-6.5,0-12.7,2.5-17.3,7.2c-4.6,4.7-7.1,10.8-7.1,17.3
	c0,6.5,2.5,12.7,7.1,17.3c4.7,4.5,10.8,7.1,17.3,7.1c6.5,0,12.7-2.6,17.3-7.1c4.7-4.7,7.2-10.8,7.2-17.3
	C364.2,229.1,361.7,223,357,218.4z M357,218.4c-4.7-4.7-10.8-7.2-17.3-7.2c-6.5,0-12.7,2.5-17.3,7.2c-4.6,4.7-7.1,10.8-7.1,17.3
	c0,6.5,2.5,12.7,7.1,17.3c4.7,4.5,10.8,7.1,17.3,7.1c6.5,0,12.7-2.6,17.3-7.1c4.7-4.7,7.2-10.8,7.2-17.3
	C364.2,229.1,361.7,223,357,218.4z"/>
</svg>
