<?xml version="1.0" encoding="UTF-8" standalone="no"?>
<!-- Created with Inkscape (http://www.inkscape.org/) -->

<svg
   xmlns:dc="http://purl.org/dc/elements/1.1/"
   xmlns:cc="http://creativecommons.org/ns#"
   xmlns:rdf="http://www.w3.org/1999/02/22-rdf-syntax-ns#"
   xmlns:svg="http://www.w3.org/2000/svg"
   xmlns="http://www.w3.org/2000/svg"
   version="1.1"
   width="287.806"
   height="285.99399"
   viewBox="0 0 287.806 285.99399"
   id="Calque_1"
   xml:space="preserve"><metadata
     id="metadata14"><rdf:RDF><cc:Work
         rdf:about=""><dc:format>image/svg+xml</dc:format><dc:type
           rdf:resource="http://purl.org/dc/dcmitype/StillImage" /><dc:title></dc:title></cc:Work></rdf:RDF></metadata><defs
     id="defs12" /><path
     d="m 0,253.641 c 0,17.729 14.493,32.353 32.352,32.353 h 223.101 c 17.729,0 32.353,-14.494 32.353,-32.353 V 32.353 C 287.806,14.624 273.312,0 255.453,0 H 32.352 C 14.623,0 0,14.494 0,32.353 m 90.328,214.688 c -26.917,0 -48.787,-21.87 -48.787,-48.787 0,-26.917 21.87,-48.787 48.787,-48.787 26.917,0 48.657,21.87 48.657,48.787 0,26.917 -21.74,48.787 -48.657,48.787 z M 142.22,136.268 H 119.574 V 79.975 L 91.493,97.962 64.964,80.621 64.318,97.962 v 38.306 H 41.672 V 38.435 l 50.21,32.352 50.47,-32.352 v 97.833 h -0.132 z m 104.045,111.162 -50.211,-32.353 -50.469,32.481 v -97.962 h 22.646 v 56.293 l 28.081,-17.858 22,14.364 5.176,3.364 v -56.163 h 22.776 v 97.834 l 10e-4,0 z M 197.478,136.268 c -26.917,0 -48.787,-21.87 -48.787,-48.658 0,-26.917 21.87,-48.787 48.787,-48.787 26.917,0 48.787,21.87 48.787,48.787 0,26.788 -21.87,48.658 -48.787,48.658 z"
     id="XMLID_233_"
     style="fill:#3fb498" /><polygon
     points="315.369,304.305 338.016,304.305 338.016,360.598 366.097,342.74 388.097,356.974 393.273,360.468 393.273,304.305 416.049,304.305 416.049,402.138 365.838,369.785 315.369,402.138 "
     transform="translate(-169.784,-154.708)"
     id="XMLID_14_"
     style="fill:#ffffff" /><path
     d="m 197.478,38.823 c -26.917,0 -48.787,21.87 -48.787,48.787 0,26.917 21.87,48.658 48.787,48.658 26.917,0 48.787,-21.87 48.787,-48.658 0,-26.917 -21.87,-48.787 -48.787,-48.787 z m 20.059,68.845 c -5.436,5.306 -12.553,8.282 -20.059,8.282 -7.636,0 -14.753,-2.847 -20.059,-8.282 -5.436,-5.436 -8.282,-12.553 -8.282,-20.059 0,-7.506 2.847,-14.752 8.282,-20.058 5.436,-5.177 12.553,-8.282 20.059,-8.282 7.506,0 14.623,3.105 20.059,8.282 5.435,5.435 8.281,12.552 8.281,20.058 10e-4,7.506 -2.847,14.624 -8.281,20.059 z"
     id="XMLID_18_"
     style="fill:#ffffff" /><polygon
     points="261.277,252.541 234.747,235.329 233.971,252.67 233.971,290.976 211.324,290.976 211.324,193.143 261.535,225.494 312.004,193.143 312.004,290.976 289.358,290.976 289.358,234.683 "
     transform="translate(-169.784,-154.708)"
     id="XMLID_9_"
     style="fill:#ffffff" /><path
     d="m 90.328,149.597 c -26.917,0 -48.787,21.87 -48.787,48.787 0,26.917 21.87,48.787 48.787,48.787 26.917,0 48.657,-21.87 48.657,-48.787 0,-27.047 -21.74,-48.787 -48.657,-48.787 z m 20.058,68.845 c -5.436,5.307 -12.553,8.282 -20.059,8.282 -7.635,0 -14.753,-2.847 -20.059,-8.282 -5.435,-5.435 -8.282,-12.552 -8.282,-20.058 0,-7.506 2.848,-14.623 8.282,-20.059 5.436,-5.177 12.553,-8.282 20.059,-8.282 7.506,0 14.623,3.105 20.059,8.282 5.435,5.436 8.282,12.553 8.282,20.059 0,7.506 -2.976,14.623 -8.282,20.058 z"
     id="XMLID_13_"
     style="fill:#ffffff" /><path
     d="m 118.668,198.254 c 0,7.506 -2.848,14.753 -8.282,20.059 -5.436,5.306 -12.553,8.282 -20.059,8.282 -7.635,0 -14.753,-2.847 -20.059,-8.282 -5.435,-5.436 -8.282,-12.553 -8.282,-20.059 0,-7.506 2.848,-14.623 8.282,-20.059 5.436,-5.176 12.553,-8.281 20.059,-8.281 7.506,0 14.623,3.105 20.059,8.281 5.306,5.436 8.282,12.553 8.282,20.059 z"
     id="XMLID_8_"
     style="fill:#3fb498" /><path
     d="m 225.819,87.61 c 0,7.506 -2.848,14.623 -8.282,20.059 -5.436,5.306 -12.553,8.282 -20.059,8.282 -7.635,0 -14.753,-2.847 -20.059,-8.282 -5.436,-5.436 -8.282,-12.553 -8.282,-20.059 0,-7.506 2.847,-14.752 8.282,-20.058 5.436,-5.177 12.553,-8.282 20.059,-8.282 7.506,0 14.623,3.105 20.059,8.282 5.434,5.306 8.282,12.423 8.282,20.058 z"
     id="XMLID_10_"
     style="fill:#3fb498" /></svg>