<?xml version="1.0" encoding="utf-8"?>
<!-- Generator: Adobe Illustrator 19.0.0, SVG Export Plug-In . SVG Version: 6.00 Build 0)  -->
<svg version="1.1" id="Calque_1" xmlns="http://www.w3.org/2000/svg" xmlns:xlink="http://www.w3.org/1999/xlink" x="0px" y="0px"
	 viewBox="0 0 460 234.5" style="enable-background:new 0 0 460 234.5;" xml:space="preserve">
<style type="text/css">
	.st0{fill:#FFFFFF;}
</style>
<path id="XMLID_247_" d="M414.7,69.9c0,0,6-7.7,3-18.1c-4.2-14.5-21-14.5-21-14.5h-34.2v73.9h40.1c0,0,21.3-1.7,21.3-21.2
	C423.8,74,414.7,69.9,414.7,69.9z M380.2,51.1H396c4.5,0,8.3,3.6,8.3,8.3c0,4.5-3.8,8.2-8.3,8.2h-15.8V51.1z M401.8,97.6h-21.6V81.1
	h21.6c4.6,0,8.2,3.7,8.2,8.3C410,94,406.3,97.6,401.8,97.6z"/>
<path id="XMLID_245_" d="M428.9,37.3v73.9h17.7V37.3H428.9z"/>
<path id="XMLID_243_" d="M60.1,138.7v-16.3H13.3V198h18.2v-29.7h21.3v-16.3H31.4v-13.4H60.1z"/>
<path id="XMLID_241_" d="M85.2,181.8v-59.4H67.1V198h54.6v-16.3H85.2z"/>
<path id="XMLID_233_" d="M414.4,138.2c-8.6,0-16.3,4.1-21.2,10.4h-39.7V31.7c0-13.7-11.2-25-25-25H156.2c-13.7,0-25,11.2-25,25v32
	H87.7c-4.9-6.4-12.6-10.4-21.2-10.4c-14.8,0-26.7,11.9-26.7,26.7c0,14.8,12,26.7,26.7,26.7c8.7,0,16.3-4.1,21.2-10.5h43.5v106.5
	c0,13.7,11.2,25,25,25h172.4c13.7,0,25-11.2,25-25v-21.6h39.7c4.9,6.4,12.6,10.5,21.2,10.5c14.8,0,26.7-12,26.7-26.7
	C441.1,150.1,429.2,138.2,414.4,138.2z M76.2,93.1c-2.7,2-6.1,3.2-9.7,3.2c-9,0-16.3-7.3-16.3-16.3s7.3-16.3,16.3-16.3
	c3.6,0,7,1.2,9.7,3.2c4,2.9,6.6,7.7,6.6,13.1C82.8,85.4,80.2,90.2,76.2,93.1z M201,197.7c-20.8,0-37.7-16.9-37.7-37.7
	c0-20.8,16.9-37.7,37.7-37.7c20.8,0,37.6,16.9,37.6,37.7C238.6,180.8,221.8,197.7,201,197.7z M241.1,112.1h-17.5V68.6l-21.7,13.9
	l-20.5-13.4l-0.5,13.4v29.6h-17.5V36.5l38.8,25l39-25V112.1z M321.5,198L282.7,173l-39,25.1v-75.7h17.5v43.5l21.7-13.8l17,11.1
	l4,2.6v-43.4h17.6V198z M283.8,112.1c-20.8,0-37.7-16.9-37.7-37.6c0-20.8,16.9-37.7,37.7-37.7s37.7,16.9,37.7,37.7
	C321.5,95.2,304.6,112.1,283.8,112.1z M414.4,181.2c-3.6,0-7-1.2-9.7-3.2c-4-2.9-6.6-7.7-6.6-13.1c0-5.4,2.6-10.2,6.7-13.1
	c2.7-2,6-3.2,9.6-3.2c9,0,16.3,7.3,16.3,16.3C430.7,173.9,423.4,181.2,414.4,181.2z"/>
<path id="XMLID_15_" class="st0" d="M430.7,164.9c0,9-7.3,16.3-16.3,16.3c-3.6,0-7-1.2-9.7-3.2c-4-2.9-6.6-7.7-6.6-13.1
	c0-5.4,2.6-10.2,6.7-13.1c2.7-2,6-3.2,9.6-3.2C423.4,148.6,430.7,155.9,430.7,164.9z"/>
<polygon id="XMLID_14_" class="st0" points="321.5,122.4 321.5,198 282.7,173 243.7,198 243.7,122.4 261.2,122.4 261.2,165.9 
	282.9,152.1 299.9,163.1 303.9,165.8 303.9,122.4 "/>
<path id="XMLID_18_" class="st0" d="M283.8,36.8c-20.8,0-37.7,16.9-37.7,37.7c0,20.8,16.9,37.6,37.7,37.6s37.7-16.9,37.7-37.6
	C321.5,53.7,304.6,36.8,283.8,36.8z M299.3,90c-4.2,4.1-9.7,6.4-15.5,6.4c-5.9,0-11.4-2.2-15.5-6.4c-4.2-4.2-6.4-9.7-6.4-15.5
	c0-5.8,2.2-11.4,6.4-15.5c4.2-4,9.7-6.4,15.5-6.4c5.8,0,11.3,2.4,15.5,6.4c4.2,4.2,6.4,9.7,6.4,15.5C305.7,80.3,303.5,85.8,299.3,90
	z"/>
<polygon id="XMLID_9_" class="st0" points="241.1,36.5 241.1,112.1 223.6,112.1 223.6,68.6 201.9,82.4 181.4,69.1 180.8,82.5 
	180.8,112.1 163.3,112.1 163.3,36.5 202.1,61.5 "/>
<path id="XMLID_13_" class="st0" d="M201,122.4c-20.8,0-37.7,16.9-37.7,37.7c0,20.8,16.9,37.7,37.7,37.7c20.8,0,37.6-16.9,37.6-37.7
	C238.6,139.2,221.8,122.4,201,122.4z M216.5,175.6c-4.2,4.1-9.7,6.4-15.5,6.4c-5.9,0-11.4-2.2-15.5-6.4c-4.2-4.2-6.4-9.7-6.4-15.5
	c0-5.8,2.2-11.3,6.4-15.5c4.2-4,9.7-6.4,15.5-6.4c5.8,0,11.3,2.4,15.5,6.4c4.2,4.2,6.4,9.7,6.4,15.5
	C222.9,165.9,220.6,171.4,216.5,175.6z"/>
<path id="XMLID_7_" class="st0" d="M82.8,80c0,5.4-2.6,10.1-6.6,13.1c-2.7,2-6.1,3.2-9.7,3.2c-9,0-16.3-7.3-16.3-16.3
	s7.3-16.3,16.3-16.3c3.6,0,7,1.2,9.7,3.2C80.2,69.9,82.8,74.6,82.8,80z"/>
<path id="XMLID_8_" d="M222.9,160c0,5.8-2.2,11.4-6.4,15.5c-4.2,4.1-9.7,6.4-15.5,6.4c-5.9,0-11.4-2.2-15.5-6.4
	c-4.2-4.2-6.4-9.7-6.4-15.5c0-5.8,2.2-11.3,6.4-15.5c4.2-4,9.7-6.4,15.5-6.4c5.8,0,11.3,2.4,15.5,6.4
	C220.6,148.7,222.9,154.2,222.9,160z"/>
<path id="XMLID_10_" d="M305.7,74.5c0,5.8-2.2,11.3-6.4,15.5c-4.2,4.1-9.7,6.4-15.5,6.4c-5.9,0-11.4-2.2-15.5-6.4
	c-4.2-4.2-6.4-9.7-6.4-15.5c0-5.8,2.2-11.4,6.4-15.5c4.2-4,9.7-6.4,15.5-6.4c5.8,0,11.3,2.4,15.5,6.4
	C303.5,63.1,305.7,68.6,305.7,74.5z"/>
</svg>
