<?xml version="1.0" encoding="utf-8"?>
<!-- Generator: Adobe Illustrator 19.0.0, SVG Export Plug-In . SVG Version: 6.00 Build 0)  -->
<svg version="1.1" id="Calque_1" xmlns="http://www.w3.org/2000/svg" xmlns:xlink="http://www.w3.org/1999/xlink" x="0px" y="0px"
	 viewBox="-53 166.4 460 234.5" style="enable-background:new -53 166.4 460 234.5;" xml:space="preserve">
<style type="text/css">
	.st0{fill:#FFFFFF;}
</style>
<path d="M163.5,310.9c-4.2-4-9.7-6.4-15.5-6.4s-11.3,2.4-15.5,6.4c-4.2,4.2-6.4,9.7-6.4,15.5s2.2,11.3,6.4,15.5
	c4.1,4.2,9.6,6.4,15.5,6.4c5.8,0,11.3-2.3,15.5-6.4s6.4-9.7,6.4-15.5S167.6,315.1,163.5,310.9z M163.5,310.9
	c-4.2-4-9.7-6.4-15.5-6.4s-11.3,2.4-15.5,6.4c-4.2,4.2-6.4,9.7-6.4,15.5s2.2,11.3,6.4,15.5c4.1,4.2,9.6,6.4,15.5,6.4
	c5.8,0,11.3-2.3,15.5-6.4s6.4-9.7,6.4-15.5S167.6,315.1,163.5,310.9z M163.5,310.9c-4.2-4-9.7-6.4-15.5-6.4s-11.3,2.4-15.5,6.4
	c-4.2,4.2-6.4,9.7-6.4,15.5s2.2,11.3,6.4,15.5c4.1,4.2,9.6,6.4,15.5,6.4c5.8,0,11.3-2.3,15.5-6.4s6.4-9.7,6.4-15.5
	S167.6,315.1,163.5,310.9z M246.3,225.4c-4.2-4-9.7-6.4-15.5-6.4s-11.3,2.4-15.5,6.4c-4.2,4.1-6.4,9.7-6.4,15.5s2.2,11.3,6.4,15.5
	c4.1,4.2,9.6,6.4,15.5,6.4c5.8,0,11.3-2.3,15.5-6.4c4.2-4.2,6.4-9.7,6.4-15.5C252.7,235,250.5,229.5,246.3,225.4z M163.5,310.9
	c-4.2-4-9.7-6.4-15.5-6.4s-11.3,2.4-15.5,6.4c-4.2,4.2-6.4,9.7-6.4,15.5s2.2,11.3,6.4,15.5c4.1,4.2,9.6,6.4,15.5,6.4
	c5.8,0,11.3-2.3,15.5-6.4s6.4-9.7,6.4-15.5S167.6,315.1,163.5,310.9z M246.3,225.4c-4.2-4-9.7-6.4-15.5-6.4s-11.3,2.4-15.5,6.4
	c-4.2,4.1-6.4,9.7-6.4,15.5s2.2,11.3,6.4,15.5c4.1,4.2,9.6,6.4,15.5,6.4c5.8,0,11.3-2.3,15.5-6.4c4.2-4.2,6.4-9.7,6.4-15.5
	C252.7,235,250.5,229.5,246.3,225.4z M-53,166.4v234.5h460V166.4H-53z M351.7,344.4c-4-2.9-6.6-7.7-6.6-13.1
	c0-5.4,2.6-10.2,6.7-13.1c2.7-2,6-3.2,9.6-3.2c9,0,16.3,7.3,16.3,16.3s-7.3,16.3-16.3,16.3C357.8,347.6,354.4,346.4,351.7,344.4z
	 M229.9,318.5l17,11.1l4,2.6v-43.4h17.6v75.6l-38.8-25l-39,25.1v-75.7h17.5v43.5L229.9,318.5z M230.8,278.5
	c-20.8,0-37.7-16.9-37.7-37.6c0-20.8,16.9-37.7,37.7-37.7s37.7,16.9,37.7,37.7C268.5,261.6,251.6,278.5,230.8,278.5z M148.9,248.9
	l-20.5-13.4l-0.5,13.4v29.6h-17.5v-75.6l38.8,25l39-25v75.6h-17.6V235L148.9,248.9z M148,288.7c20.8,0,37.6,16.9,37.6,37.7
	s-16.8,37.7-37.6,37.7s-37.7-16.9-37.7-37.7S127.2,288.7,148,288.7z M-2.8,246.4c0-9,7.3-16.3,16.3-16.3c3.6,0,7,1.2,9.7,3.2
	c4,2.9,6.6,7.7,6.6,13.1s-2.6,10.2-6.6,13.1c-2.7,2-6.1,3.2-9.7,3.2C4.5,262.7-2.8,255.4-2.8,246.4z M230.8,219
	c-5.8,0-11.3,2.4-15.5,6.4c-4.2,4.1-6.4,9.7-6.4,15.5s2.2,11.3,6.4,15.5c4.1,4.2,9.6,6.4,15.5,6.4c5.8,0,11.3-2.3,15.5-6.4
	c4.2-4.2,6.4-9.7,6.4-15.5c0-5.9-2.2-11.4-6.4-15.5C242.1,221.4,236.6,219,230.8,219z M148,348.3c5.8,0,11.3-2.3,15.5-6.4
	s6.4-9.7,6.4-15.5s-2.3-11.3-6.4-15.5c-4.2-4-9.7-6.4-15.5-6.4s-11.3,2.4-15.5,6.4c-4.2,4.2-6.4,9.7-6.4,15.5s2.2,11.3,6.4,15.5
	C136.6,346.1,142.1,348.3,148,348.3z M246.3,225.4c-4.2-4-9.7-6.4-15.5-6.4s-11.3,2.4-15.5,6.4c-4.2,4.1-6.4,9.7-6.4,15.5
	s2.2,11.3,6.4,15.5c4.1,4.2,9.6,6.4,15.5,6.4c5.8,0,11.3-2.3,15.5-6.4c4.2-4.2,6.4-9.7,6.4-15.5C252.7,235,250.5,229.5,246.3,225.4z
	 M163.5,310.9c-4.2-4-9.7-6.4-15.5-6.4s-11.3,2.4-15.5,6.4c-4.2,4.2-6.4,9.7-6.4,15.5s2.2,11.3,6.4,15.5c4.1,4.2,9.6,6.4,15.5,6.4
	c5.8,0,11.3-2.3,15.5-6.4s6.4-9.7,6.4-15.5S167.6,315.1,163.5,310.9z M246.3,225.4c-4.2-4-9.7-6.4-15.5-6.4s-11.3,2.4-15.5,6.4
	c-4.2,4.1-6.4,9.7-6.4,15.5s2.2,11.3,6.4,15.5c4.1,4.2,9.6,6.4,15.5,6.4c5.8,0,11.3-2.3,15.5-6.4c4.2-4.2,6.4-9.7,6.4-15.5
	C252.7,235,250.5,229.5,246.3,225.4z M163.5,310.9c-4.2-4-9.7-6.4-15.5-6.4s-11.3,2.4-15.5,6.4c-4.2,4.2-6.4,9.7-6.4,15.5
	s2.2,11.3,6.4,15.5c4.1,4.2,9.6,6.4,15.5,6.4c5.8,0,11.3-2.3,15.5-6.4s6.4-9.7,6.4-15.5S167.6,315.1,163.5,310.9z M163.5,310.9
	c-4.2-4-9.7-6.4-15.5-6.4s-11.3,2.4-15.5,6.4c-4.2,4.2-6.4,9.7-6.4,15.5s2.2,11.3,6.4,15.5c4.1,4.2,9.6,6.4,15.5,6.4
	c5.8,0,11.3-2.3,15.5-6.4s6.4-9.7,6.4-15.5S167.6,315.1,163.5,310.9z M163.5,310.9c-4.2-4-9.7-6.4-15.5-6.4s-11.3,2.4-15.5,6.4
	c-4.2,4.2-6.4,9.7-6.4,15.5s2.2,11.3,6.4,15.5c4.1,4.2,9.6,6.4,15.5,6.4c5.8,0,11.3-2.3,15.5-6.4s6.4-9.7,6.4-15.5
	S167.6,315.1,163.5,310.9z"/>
<path id="XMLID_247_" class="st0" d="M361.7,236.3c0,0,6-7.7,3-18.1c-4.2-14.5-21-14.5-21-14.5h-34.2v73.9h40.1
	c0,0,21.3-1.7,21.3-21.2C370.8,240.4,361.7,236.3,361.7,236.3z M327.2,217.5H343c4.5,0,8.3,3.6,8.3,8.3c0,4.5-3.8,8.2-8.3,8.2h-15.8
	V217.5z M348.8,264h-21.6v-16.5h21.6c4.6,0,8.2,3.7,8.2,8.3C357,260.4,353.3,264,348.8,264z"/>
<path id="XMLID_245_" class="st0" d="M375.9,203.7v73.9h17.7v-73.9H375.9z"/>
<path id="XMLID_243_" class="st0" d="M7.1,305.1v-16.3h-46.8v75.6h18.2v-29.7h21.3v-16.3h-21.4V305H7.1V305.1z"/>
<path id="XMLID_241_" class="st0" d="M32.2,348.2v-59.4H14.1v75.6h54.6v-16.3H32.2V348.2z"/>
<path id="XMLID_233_" class="st0" d="M361.4,304.6c-8.6,0-16.3,4.1-21.2,10.4h-39.7V198.1c0-13.7-11.2-25-25-25H103.2
	c-13.7,0-25,11.2-25,25v32H34.7c-4.9-6.4-12.6-10.4-21.2-10.4c-14.8,0-26.7,11.9-26.7,26.7s12,26.7,26.7,26.7
	c8.7,0,16.3-4.1,21.2-10.5h43.5v106.5c0,13.7,11.2,25,25,25h172.4c13.7,0,25-11.2,25-25v-21.6h39.7c4.9,6.4,12.6,10.5,21.2,10.5
	c14.8,0,26.7-12,26.7-26.7C388.1,316.5,376.2,304.6,361.4,304.6z M23.2,259.5c-2.7,2-6.1,3.2-9.7,3.2c-9,0-16.3-7.3-16.3-16.3
	s7.3-16.3,16.3-16.3c3.6,0,7,1.2,9.7,3.2c4,2.9,6.6,7.7,6.6,13.1S27.2,256.6,23.2,259.5z M148,364.1c-20.8,0-37.7-16.9-37.7-37.7
	s16.9-37.7,37.7-37.7s37.6,16.9,37.6,37.7S168.8,364.1,148,364.1z M188.2,278.5h-17.6V235l-21.7,13.9l-20.5-13.4l-0.5,13.4v29.6
	h-17.5v-75.6l38.8,25l39-25V278.5z M268.5,364.4l-38.8-25l-39,25.1v-75.7h17.5v43.5l21.7-13.8l17,11.1l4,2.6v-43.4h17.6V364.4z
	 M230.8,278.5c-20.8,0-37.7-16.9-37.7-37.6c0-20.8,16.9-37.7,37.7-37.7s37.7,16.9,37.7,37.7C268.5,261.6,251.6,278.5,230.8,278.5z
	 M361.4,347.6c-3.6,0-7-1.2-9.7-3.2c-4-2.9-6.6-7.7-6.6-13.1c0-5.4,2.6-10.2,6.7-13.1c2.7-2,6-3.2,9.6-3.2c9,0,16.3,7.3,16.3,16.3
	S370.4,347.6,361.4,347.6z"/>
<path d="M377.7,331.3c0,9-7.3,16.3-16.3,16.3c-3.6,0-7-1.2-9.7-3.2c-4-2.9-6.6-7.7-6.6-13.1c0-5.4,2.6-10.2,6.7-13.1
	c2.7-2,6-3.2,9.6-3.2C370.4,315,377.7,322.3,377.7,331.3z"/>
<polygon points="268.5,288.8 268.5,364.4 229.7,339.4 190.7,364.5 190.7,288.8 208.2,288.8 208.2,332.3 229.9,318.5 246.9,329.6 
	250.9,332.2 250.9,288.8 "/>
<path d="M230.8,203.2c-20.8,0-37.7,16.9-37.7,37.7c0,20.7,16.9,37.6,37.7,37.6s37.7-16.9,37.7-37.6
	C268.5,220.1,251.6,203.2,230.8,203.2z M246.3,256.4c-4.2,4.1-9.7,6.4-15.5,6.4c-5.9,0-11.4-2.2-15.5-6.4c-4.2-4.2-6.4-9.7-6.4-15.5
	s2.2-11.4,6.4-15.5c4.2-4,9.7-6.4,15.5-6.4s11.3,2.4,15.5,6.4c4.2,4.1,6.4,9.6,6.4,15.5C252.7,246.7,250.5,252.2,246.3,256.4z"/>
<polygon points="188.2,202.9 188.2,278.5 170.6,278.5 170.6,235 148.9,248.9 128.4,235.5 127.9,248.9 127.9,278.5 110.4,278.5 
	110.4,202.9 149.2,227.9 "/>
<path d="M148,288.7c-20.8,0-37.7,16.9-37.7,37.7s16.9,37.7,37.7,37.7s37.6-16.9,37.6-37.7S168.8,288.7,148,288.7z M163.5,341.9
	c-4.2,4.1-9.7,6.4-15.5,6.4c-5.9,0-11.4-2.2-15.5-6.4c-4.2-4.2-6.4-9.7-6.4-15.5s2.2-11.3,6.4-15.5c4.2-4,9.7-6.4,15.5-6.4
	s11.3,2.4,15.5,6.4c4.1,4.2,6.4,9.7,6.4,15.5S167.7,337.8,163.5,341.9z"/>
<path d="M29.8,246.4c0,5.4-2.6,10.2-6.6,13.1c-2.7,2-6.1,3.2-9.7,3.2c-9,0-16.3-7.3-16.3-16.3s7.3-16.3,16.3-16.3
	c3.6,0,7,1.2,9.7,3.2C27.2,236.2,29.8,241,29.8,246.4z"/>
<path class="st0" d="M169.9,326.4c0,5.8-2.2,11.4-6.4,15.5s-9.7,6.4-15.5,6.4c-5.9,0-11.4-2.2-15.5-6.4c-4.2-4.2-6.4-9.7-6.4-15.5
	s2.2-11.3,6.4-15.5c4.2-4,9.7-6.4,15.5-6.4s11.3,2.4,15.5,6.4C167.6,315.1,169.9,320.6,169.9,326.4z"/>
<path class="st0" d="M252.7,240.9c0,5.8-2.2,11.3-6.4,15.5c-4.2,4.1-9.7,6.4-15.5,6.4c-5.9,0-11.4-2.2-15.5-6.4
	c-4.2-4.2-6.4-9.7-6.4-15.5s2.2-11.4,6.4-15.5c4.2-4,9.7-6.4,15.5-6.4s11.3,2.4,15.5,6.4C250.5,229.5,252.7,235,252.7,240.9z"/>
</svg>
